<?xml version="1.0" encoding="UTF-8" standalone="no"?>
<!-- Generator: Adobe Illustrator 26.0.3, SVG Export Plug-In . SVG Version: 6.00 Build 0)  -->

<svg
   version="1.1"
   id="Layer_1"
   x="0px"
   y="0px"
   viewBox="0 0 1046.5834 518.82074"
   xml:space="preserve"
   width="1046.5834"
   height="518.82074"
   xmlns="http://www.w3.org/2000/svg"
   xmlns:svg="http://www.w3.org/2000/svg"><defs
   id="defs1208" />
<style
   type="text/css"
   id="style1017">
	.st0{fill-rule:evenodd;clip-rule:evenodd;fill:#11192B;}
	.st1{fill-rule:evenodd;clip-rule:evenodd;fill:#FFFFFF;}
	.st2{fill-rule:evenodd;clip-rule:evenodd;fill:#313C57;}
	.st3{fill-rule:evenodd;clip-rule:evenodd;fill:#252E45;}
	.st4{fill-rule:evenodd;clip-rule:evenodd;fill:#1F273B;}
	.st5{fill-rule:evenodd;clip-rule:evenodd;fill:#BF738A;}
	.st6{fill-rule:evenodd;clip-rule:evenodd;fill:#FF96B6;}
	.st7{fill-rule:evenodd;clip-rule:evenodd;fill:#3E4E75;}
	.st8{fill-rule:evenodd;clip-rule:evenodd;fill:#2B395C;}
	.st9{fill-rule:evenodd;clip-rule:evenodd;fill:#FFF0F0;}
	.st10{fill-rule:evenodd;clip-rule:evenodd;fill:#CF4C78;}
	.st11{fill-rule:evenodd;clip-rule:evenodd;fill:#3D4969;}
	.st12{fill-rule:evenodd;clip-rule:evenodd;fill:#99FFFF;}
</style>
<g
   id="g1203"
   transform="translate(-113.41659,-253.17925)">
	<path
   class="st0"
   d="m 535.07,471.54 c -229.21,39.78 -417.96,110.25 -421.6,157.4 -3.64,47.15 179.23,53.12 408.43,13.33 229.21,-39.78 417.96,-110.25 421.6,-157.4 3.64,-47.14 -179.22,-53.11 -408.43,-13.33 z"
   id="path1019" />
	<path
   class="st1"
   d="M 607.82,424.01 C 578.58,358.62 527.95,271.8 449.28,262.2 c -37.93,-4.63 -71.89,10.37 -99.5,30.02 -30.65,21.81 -57.01,51.4 -79.52,81.25 -27.81,36.88 -52.07,77.4 -73.59,118.72 -9.98,19.17 -19.88,39.08 -28.37,59.14 -3.24,7.64 -1.12,16.79 5.49,23.74 6.61,6.95 15.78,9.65 23.77,7.01 l 400.56,-132.2 c 10.3,-3.41 14.6,-14.9 9.7,-25.87 z"
   id="path1021" />
	<path
   class="st2"
   d="M 435.46,301.92 415.2,271.03 c 0,0 146.35,-42.38 272.35,3.46 l -131.3,85.73 z"
   id="path1023" />
	<path
   class="st2"
   d="m 435.46,301.92 -6.07,-9.26 c 37.4,-19.53 71.19,-23.21 84.85,-6.43 9.4,11.55 7.52,30.62 -3.12,52.21 z"
   id="path1025" />
	<path
   class="st2"
   d="M 617.59,429.83 C 588.35,364.44 537.72,277.62 459.05,268.02 c -37.93,-4.63 -71.88,10.37 -99.5,30.02 -30.65,21.81 -57.01,51.4 -79.52,81.25 -27.81,36.88 -52.07,77.4 -73.59,118.72 -9.98,19.17 -19.88,39.08 -28.37,59.14 -3.24,7.64 -1.12,16.79 5.49,23.74 2.6,2.73 5.59,4.8 8.75,6.16 v 0 0 c 2.87,1.23 5.87,1.86 8.85,1.85 l 130.19,27.2 17.89,-36.43 18.69,-42.68 -3,-1.09 242.97,-80.2 c 10.29,-3.4 14.6,-14.9 9.69,-25.87 z"
   id="path1027" />
	<path
   class="st3"
   d="m 189.74,585.76 c 0.53,0.3 1.06,0.58 1.61,0.84 l 93.37,-28.5 h -0.01 c 71.32,-31.64 70.73,-76.09 80.44,-133.7 7.5,-44.47 24.48,-85.14 46.74,-116.95 -1.96,0.68 -3.91,1.39 -5.85,2.14 -21.53,31.49 -37.93,71.34 -45.26,114.81 -9.71,57.61 -9.12,102.06 -80.44,133.7 h 0.01 z"
   id="path1029" />
	<path
   class="st3"
   d="m 269.64,393.47 c -23.52,32.98 -44.4,68.45 -63.19,104.55 -9.98,19.17 -19.88,39.08 -28.37,59.14 -1.1,2.59 -1.58,5.36 -1.48,8.16 4.1,2.19 8.87,2.7 13.41,1.26 l 99.2,-31.55 h -0.01 c 60.14,-28.29 54.86,-68.03 57.33,-119.54 1.91,-39.75 12.68,-76.12 29.1,-104.57 -12.67,4.58 -24.66,11.07 -35.67,18.34 -26.21,17.29 -49.74,40.55 -70.32,64.21 z"
   id="path1031" />
	<path
   class="st0"
   d="m 408.75,413.29 v 0 c -3.88,-4.84 -10.98,-5.59 -15.78,-1.67 l -34.63,28.28 c -4.8,3.92 -5.56,11.08 -1.68,15.92 v 0 c 3.88,4.84 10.98,5.59 15.78,1.66 l 34.63,-28.28 c 4.8,-3.91 5.55,-11.08 1.68,-15.91 z"
   id="path1033" />
	<path
   class="st0"
   d="m 439.8,370.43 c 11.49,0.17 20.43,5.19 19.96,11.22 -0.47,6.03 -10.16,10.77 -21.65,10.6 -11.49,-0.17 -20.43,-5.19 -19.96,-11.22 0.47,-6.03 10.16,-10.77 21.65,-10.6 z"
   id="path1035" />
	<path
   class="st1"
   d="M 830.54,448.8 C 814.81,378.7 781.18,285.63 698.61,275.34 c -39.81,-4.96 -80.08,11.11 -114.64,32.17 -38.35,23.37 -73.96,55.09 -105.48,87.09 -38.94,39.53 -74.92,82.96 -108.14,127.26 -15.41,20.55 -30.91,41.89 -44.93,63.39 -5.34,8.19 -5.27,18 0.18,25.45 5.46,7.45 14.69,10.35 23.96,7.52 L 813.82,476.53 c 11.93,-3.65 19.36,-15.97 16.72,-27.73 z"
   id="path1037" />
	<path
   class="st3"
   d="m 626.23,307.46 c -14.84,5.12 -29.17,12.38 -42.51,20.51 -32.76,19.97 -63.18,47.06 -90.1,74.4 -33.26,33.77 -64,70.87 -92.38,108.71 -13.16,17.56 -26.4,35.79 -38.38,54.15 -4.56,7 -4.5,15.37 0.16,21.74 4.66,6.36 12.55,8.84 20.47,6.42 l 115.59,-35.28 h -0.01 c 71.32,-31.64 70.73,-76.09 80.44,-133.7 7.48,-44.46 24.46,-85.14 46.72,-116.95 z"
   id="path1039" />
	<path
   class="st0"
   d="m 603.75,316.91 c -6.87,3.39 -13.57,7.12 -20.03,11.06 -32.76,19.97 -63.18,47.06 -90.1,74.4 -33.26,33.77 -64,70.87 -92.38,108.71 -13.16,17.55 -26.4,35.79 -38.38,54.15 -4.56,7 -4.5,15.37 0.16,21.74 1.39,1.89 3.06,3.44 4.94,4.62 l 0.57,-0.17 115.59,-35.28 h -0.01 c 71.32,-31.64 70.73,-76.09 80.43,-133.7 6.62,-39.3 20.66,-75.65 39.21,-105.53 z"
   id="path1041" />
	<path
   class="st3"
   d="m 572.05,335.44 c -2.27,1.52 -4.52,3.07 -6.76,4.65 -12.66,25.25 -22.24,53.9 -27.36,84.32 -9.71,57.61 -9.12,102.06 -80.44,133.7 h 0.01 l -94.5,28.84 0.01,0.02 c 0.27,0.37 0.55,0.72 0.84,1.06 l 98.03,-29.92 h -0.01 c 71.32,-31.64 70.73,-76.09 80.44,-133.7 5.44,-32.31 15.89,-62.61 29.74,-88.97 z"
   id="path1043" />
	<path
   class="st4"
   d="m 448.24,390.14 c -17.13,6.37 -31.38,43.18 -31.84,82.23 -0.46,39.04 13.05,65.53 30.18,59.16 17.13,-6.37 31.38,-43.19 31.84,-82.23 0.46,-39.04 -13.06,-65.53 -30.18,-59.16 z"
   id="path1045" />
	<path
   class="st0"
   d="m 371.95,497.96 c -33.63,-0.5 -60.65,5.82 -60.35,14.12 0.3,8.3 27.81,15.44 61.44,15.94 33.63,0.5 60.65,-5.82 60.35,-14.12 -0.3,-8.3 -27.81,-15.43 -61.44,-15.94 z"
   id="path1047" />
	<path
   class="st0"
   d="m 352.03,526.16 c 67.52,-6.97 122.06,-0.31 121.83,14.87 -0.23,15.18 -55.16,33.13 -122.67,40.1 -67.52,6.97 -122.06,0.31 -121.83,-14.87 0.23,-15.18 55.15,-33.13 122.67,-40.1 z"
   id="path1049" />
	<path
   class="st0"
   d="m 380.64,467.45 -69.12,6.68 c -8.65,0.84 -14.69,8.56 -13.42,17.17 v 0 c 1.27,8.61 9.37,14.96 18.02,14.13 l 69.12,-6.68 c 8.65,-0.84 14.69,-8.56 13.42,-17.17 v 0 c -1.26,-8.61 -9.37,-14.96 -18.02,-14.13 z"
   id="path1051" />
	<path
   class="st0"
   d="m 296.33,484.64 -22.7,64.1 c -2.93,8.28 1.35,17.71 9.52,20.96 v 0 c 8.17,3.25 17.25,-0.87 20.18,-9.14 l 22.7,-64.1 c 2.93,-8.28 -1.35,-17.71 -9.52,-20.96 v 0 c -8.17,-3.25 -17.25,0.86 -20.18,9.14 z"
   id="path1053" />
	<path
   class="st0"
   d="m 410.11,398.69 c -12.07,-0.18 -28.66,19.94 -37.04,44.93 -8.38,24.99 -5.38,45.4 6.69,45.58 12.07,0.18 28.66,-19.94 37.03,-44.93 8.39,-24.99 5.39,-45.4 -6.68,-45.58 z"
   id="path1055" />
	<path
   class="st0"
   d="m 445.58,386.25 c -17.89,-0.27 -44.52,29.51 -59.48,66.5 -14.96,36.99 -12.59,67.2 5.3,67.47 17.89,0.27 44.52,-29.51 59.48,-66.5 14.96,-37 12.59,-67.21 -5.3,-67.47 z"
   id="path1057" />
	<path
   class="st1"
   d="m 418.49,400.88 c -12.07,-0.18 -28.65,19.94 -37.03,44.93 -8.38,24.99 -5.38,45.4 6.69,45.58 12.07,0.18 28.65,-19.94 37.03,-44.93 8.39,-24.99 5.39,-45.4 -6.69,-45.58 z"
   id="path1059" />
	<path
   class="st4"
   d="m 431.09,533.41 c 12.1,-2.88 21.59,-1.05 21.2,4.09 -0.4,5.14 -10.53,11.64 -22.63,14.52 -12.1,2.88 -21.59,1.05 -21.2,-4.09 0.39,-5.14 10.53,-11.64 22.63,-14.52 z"
   id="path1061" />
	<polygon
   class="st4"
   points="451.4,540.01 408.48,548.77 410.8,509.31 469.06,493.58 480.24,491.95 "
   id="polygon1063" />
	<path
   class="st5"
   d="m 429.58,376.68 v 0 c -5.75,-0.09 -12.21,4.53 -14.34,10.25 l -5.47,14.68 c -2.13,5.72 0.83,10.48 6.58,10.56 v 0 c 5.75,0.09 12.2,-4.52 14.34,-10.25 l 5.47,-14.68 c 2.13,-5.73 -0.83,-10.48 -6.58,-10.56 z"
   id="path1065" />
	<path
   class="st5"
   d="m 423.36,359.46 v 0 c -6.87,-0.1 -13.14,5.42 -13.93,12.28 l -1.78,15.35 c -0.8,6.86 4.17,12.55 11.04,12.65 l 5.52,0.08 c 3.83,0.06 7.33,-3.03 7.78,-6.86 l 2.42,-20.86 c 0.78,-6.85 -4.18,-12.54 -11.05,-12.64 z"
   id="path1067" />
	<path
   class="st6"
   d="m 419.4,399.76 4.79,0.07 c 3.83,0.06 7.33,-3.03 7.78,-6.86 l 2.42,-20.86 c 0.63,-5.41 -2.34,-10.1 -6.99,-11.89 -6.6,0.25 -12.49,5.64 -13.26,12.27 l -1.78,15.35 c -0.63,5.44 2.36,10.15 7.04,11.92 z"
   id="path1069" />
	<path
   class="st5"
   d="m 433.27,381.54 1.12,-9.69 c 0.62,-5.38 -2.2,-10.06 -6.71,-12.02 l -2.08,-0.03 c -6.1,0.99 -11.28,6.18 -12.01,12.45 l -0.96,8.31 c 1.11,0.45 2.34,0.71 3.65,0.73 z"
   id="path1071" />
	<path
   class="st0"
   d="m 430.09,355.81 -13.91,-0.21 c -5.79,-0.09 -11.2,4.57 -12.03,10.34 v 0 c -0.83,5.78 3.23,10.57 9.02,10.66 l 18.56,0.28 c 3.23,0.05 6.25,-2.55 6.71,-5.77 l 0.67,-4.64 c 0.82,-5.78 -3.23,-10.57 -9.02,-10.66 z"
   id="path1073" />
	<path
   class="st7"
   d="m 378.56,435.65 -69.87,-15.31 c -1.75,-0.38 -2.84,0.87 -2.43,2.79 l 9.38,44.25 c 0.41,1.92 2.17,3.8 3.91,4.18 l 69.87,15.31 c 1.75,0.38 2.84,-0.87 2.43,-2.79 l -9.38,-44.25 c -0.4,-1.92 -2.16,-3.8 -3.91,-4.18 z"
   id="path1075" />
	<path
   class="st0"
   d="m 438.53,366.45 v 0 c -4.35,-0.06 -8.37,3.43 -8.95,7.76 l -0.7,5.25 c -0.58,4.33 2.49,7.93 6.84,8 l 3.49,0.05 c 2.43,0.04 4.67,-1.91 5,-4.33 l 1.17,-8.73 c 0.57,-4.33 -2.51,-7.93 -6.85,-8 z"
   id="path1077" />
	<path
   class="st6"
   d="m 436.9,380.04 v 0 c -2.15,-0.03 -4.15,1.7 -4.43,3.84 l -0.35,2.6 c -0.29,2.15 1.23,3.93 3.39,3.96 l 1.73,0.03 c 1.2,0.02 2.31,-0.95 2.48,-2.15 L 440.3,384 c 0.27,-2.15 -1.25,-3.93 -3.4,-3.96 z"
   id="path1079" />
	<path
   class="st8"
   d="m 433.63,404.12 c -12.07,-0.18 -28.58,18.97 -36.87,42.77 -8.29,23.8 -5.22,43.24 6.86,43.42 12.07,0.18 28.58,-18.97 36.87,-42.77 8.29,-23.8 5.22,-43.24 -6.86,-43.42 z"
   id="path1081" />
	<path
   class="st0"
   d="m 401.89,475.52 -69.12,6.68 c -8.65,0.84 -14.69,8.56 -13.42,17.17 v 0 c 1.26,8.61 9.37,14.96 18.02,14.13 l 69.12,-6.68 c 8.65,-0.84 14.69,-8.56 13.42,-17.17 v 0 c -1.26,-8.61 -9.37,-14.96 -18.02,-14.13 z"
   id="path1083" />
	<path
   class="st4"
   d="m 341.67,493.67 -39.31,54.21 c -5.2,7.17 -3.65,17.37 3.44,22.67 v 0 c 7.09,5.31 17.14,3.78 22.34,-3.38 l 39.31,-54.21 c 5.2,-7.17 3.65,-17.37 -3.44,-22.67 v 0 c -7.1,-5.31 -17.15,-3.79 -22.34,3.38 z"
   id="path1085" />
	<path
   class="st0"
   d="m 212.77,486.04 c -2.13,3.98 -4.24,7.97 -6.33,11.97 -9.98,19.17 -19.88,39.08 -28.37,59.14 -3.24,7.64 -1.12,16.79 5.49,23.74 2.6,2.73 5.59,4.8 8.75,6.16 v 0 0 c 2.87,1.23 5.87,1.86 8.85,1.85 l 130.19,27.2 17.89,-36.43 18.69,-42.68 -3,-1.09 14.11,-4.66 1.98,-9.44 -2.68,-10.5 c 0.01,-0.02 -148.65,92.69 -165.57,-25.26 z"
   id="path1087" />
	<path
   class="st0"
   d="m 376.29,437.92 -69.87,-15.31 c -1.75,-0.38 -2.84,0.87 -2.43,2.79 l 9.38,44.25 c 0.41,1.92 2.17,3.8 3.91,4.18 l 69.87,15.31 c 1.75,0.38 2.84,-0.87 2.43,-2.79 L 380.2,442.1 c -0.4,-1.92 -2.16,-3.8 -3.91,-4.18 z"
   id="path1089" />
	<path
   class="st2"
   d="m 446.7,483.12 c 19.46,-4.63 34.71,-1.69 34.08,6.57 -0.64,8.26 -16.93,18.71 -36.38,23.35 -19.46,4.63 -34.71,1.69 -34.08,-6.57 0.63,-8.26 16.92,-18.72 36.38,-23.35 z"
   id="path1091" />
	<path
   class="st0"
   d="m 444.71,481.52 c 11.72,-2.79 20.91,-1.02 20.52,3.96 -0.38,4.98 -10.19,11.27 -21.91,14.06 -11.72,2.79 -20.91,1.02 -20.52,-3.96 0.38,-4.98 10.19,-11.27 21.91,-14.06 z"
   id="path1093" />
	<path
   class="st7"
   d="m 438.28,412.73 v 0 c -7.16,1.14 -12.42,7.99 -11.7,15.21 l 4.59,45.87 c 0.72,7.22 7.17,12.2 14.32,11.05 v 0 c 7.16,-1.14 12.42,-7.99 11.7,-15.21 l -4.59,-45.87 c -0.72,-7.22 -7.17,-12.19 -14.32,-11.05 z"
   id="path1095" />
	<path
   class="st7"
   d="m 386.26,467.67 v 0 c -1.58,7.07 3,13.81 10.16,14.96 l 45.53,7.35 c 7.17,1.16 14.31,-3.68 15.89,-10.75 v 0 c 1.58,-7.07 -3,-13.8 -10.16,-14.96 l -45.53,-7.35 c -7.16,-1.16 -14.31,3.68 -15.89,10.75 z"
   id="path1097" />
	<path
   class="st6"
   d="m 388.71,456.67 c -8.31,-2.29 -16.5,0.21 -18.29,5.57 -1.79,5.37 3.5,11.57 11.81,13.86 8.31,2.29 16.5,-0.21 18.29,-5.58 1.78,-5.36 -3.5,-11.56 -11.81,-13.85 z"
   id="path1099" />
	<path
   class="st1"
   d="m 830.54,448.8 c 2.64,11.76 -4.79,24.08 -16.72,27.72 L 349.56,618.21 c -9.27,2.83 -18.5,-0.07 -23.96,-7.52 -5.46,-7.45 -5.53,-17.26 -0.18,-25.45 14.02,-21.5 29.52,-42.84 44.93,-63.39 33.22,-44.3 69.2,-87.72 108.14,-127.26 31.51,-32 67.13,-63.72 105.48,-87.09 34.56,-21.06 74.83,-37.13 114.64,-32.17 82.57,10.3 116.2,103.37 131.93,173.47 z M 583.72,327.97 c -32.76,19.97 -63.18,47.06 -90.1,74.4 -33.26,33.77 -64,70.87 -92.38,108.71 -13.17,17.56 -26.4,35.79 -38.38,54.15 -4.56,7 -4.5,15.37 0.16,21.74 4.66,6.36 12.55,8.84 20.47,6.42 l 115.59,-35.28 h -0.01 c 71.32,-31.64 70.73,-76.09 80.44,-133.7 7.49,-44.46 24.48,-85.14 46.74,-116.95 -14.86,5.12 -29.19,12.38 -42.53,20.51 z"
   id="path1101" />
	<path
   class="st9"
   d="m 830.54,448.8 -0.06,-0.24 -0.55,-2.43 -0.14,-0.63 -0.08,-0.32 -0.62,-2.67 -0.08,-0.34 -0.02,-0.08 -0.03,-0.14 -0.73,-3.06 -0.05,-0.2 -0.72,-2.95 -0.08,-0.32 -0.04,-0.18 -0.01,-0.04 -0.69,-2.73 -0.12,-0.47 -0.08,-0.29 -0.79,-3.02 -0.03,-0.12 -0.07,-0.27 c -0.57,-2.17 -1.16,-4.34 -1.77,-6.53 l -0.05,-0.19 c -0.29,-1.04 -0.58,-2.08 -0.88,-3.12 l -0.09,-0.3 -0.09,-0.3 -0.85,-2.92 -0.08,-0.28 -0.14,-0.46 c -0.28,-0.95 -0.56,-1.89 -0.85,-2.84 l -0.06,-0.21 -0.04,-0.13 c -0.32,-1.05 -0.65,-2.11 -0.98,-3.17 l -0.14,-0.44 c -0.69,-2.21 -1.41,-4.42 -2.14,-6.63 l -0.13,-0.38 c -0.35,-1.05 -0.71,-2.1 -1.07,-3.15 l -0.05,-0.15 -0.01,-0.03 -0.07,-0.2 c -0.35,-1.02 -0.71,-2.04 -1.07,-3.06 l -0.18,-0.49 c -0.38,-1.07 -0.77,-2.14 -1.16,-3.21 l -0.03,-0.07 -0.02,-0.06 c -0.39,-1.05 -0.78,-2.1 -1.18,-3.15 l -0.24,-0.64 c -0.37,-0.97 -0.74,-1.94 -1.12,-2.91 l -0.09,-0.23 -0.06,-0.15 c -0.4,-1.03 -0.81,-2.05 -1.22,-3.08 l -0.22,-0.53 c -0.38,-0.95 -0.77,-1.9 -1.17,-2.84 l -0.22,-0.52 c -0.43,-1.04 -0.87,-2.07 -1.32,-3.1 l -0.16,-0.37 c -0.43,-1 -0.87,-1.99 -1.31,-2.98 l -0.16,-0.37 c -0.46,-1.03 -0.92,-2.05 -1.4,-3.07 l -0.24,-0.52 c -0.44,-0.94 -0.88,-1.89 -1.33,-2.83 l -0.19,-0.41 c -0.48,-0.99 -0.96,-1.98 -1.45,-2.97 -16.02,-18.84 -36.63,-32.46 -63.32,-35.78 -33.5,-4.18 -67.39,9.35 -96.47,27.07 -18.69,11.39 -36.61,25.14 -53.53,39.92 -3.17,10.98 -5.77,22.31 -7.72,33.89 -9.71,57.61 -9.12,102.06 -80.44,133.7 h 0.01 l -73.4,22.4 c -0.84,1.27 -1.68,2.54 -2.5,3.81 -2.55,3.91 -3.63,8.25 -3.26,12.42 l 393.91,-120.22 0.56,-0.18 0.55,-0.19 0.54,-0.2 0.54,-0.21 v 0 l 0.53,-0.22 v 0 l 0.52,-0.24 0.51,-0.25 0.51,-0.26 c 0.17,-0.09 0.34,-0.18 0.5,-0.27 v 0 l 0.49,-0.28 0.48,-0.29 v 0 l 0.48,-0.3 0.47,-0.31 v 0 l 0.46,-0.32 v 0 l 0.45,-0.33 0.44,-0.34 0.43,-0.35 v 0 l 0.42,-0.36 v 0 l 0.42,-0.37 v 0 l 0.41,-0.38 v 0 l 0.4,-0.39 v 0 l 0.39,-0.39 v 0 l 0.38,-0.4 v 0 l 0.37,-0.41 v 0 l 0.36,-0.42 v 0 l 0.35,-0.43 v 0 L 826.1,468 v 0 l 0.33,-0.44 v 0 l 0.32,-0.45 v 0 l 0.31,-0.45 v 0 l 0.3,-0.46 v 0 l 0.29,-0.46 v 0 l 0.28,-0.47 v 0 l 0.27,-0.48 v 0 l 0.26,-0.48 v 0 l 0.25,-0.49 v 0 l 0.23,-0.49 v 0 l 0.22,-0.5 v 0 l 0.21,-0.5 v 0 l 0.2,-0.51 v 0 l 0.19,-0.51 v 0 l 0.17,-0.51 v 0 l 0.16,-0.52 v 0 l 0.15,-0.52 0.14,-0.53 v 0 l 0.13,-0.53 v 0 l 0.11,-0.53 v 0 l 0.1,-0.53 v 0 l 0.09,-0.54 v 0 l 0.08,-0.54 v 0 l 0.06,-0.54 v 0 l 0.05,-0.54 0.04,-0.55 v 0 l 0.02,-0.55 v 0 l 0.01,-0.55 v 0 -0.55 0 l -0.02,-0.55 v 0 l -0.03,-0.55 v 0 l -0.04,-0.55 v 0 l -0.06,-0.55 v 0 l -0.07,-0.55 v 0 l -0.09,-0.55 v 0 l -0.1,-0.55 v 0 z"
   id="path1103" />
	<path
   class="st0"
   d="m 720.65,307.93 c -42.43,-0.63 -85.74,51.82 -96.76,117.15 -11.01,65.33 14.45,118.8 56.88,119.44 42.42,0.63 85.74,-51.82 96.76,-117.15 11.01,-65.34 -14.46,-118.81 -56.88,-119.44 z"
   id="path1105" />
	<path
   class="st3"
   d="m 716.81,330.71 c -5.2,-0.08 -10.41,0.84 -15.55,2.62 32.34,3.05 51.36,45.16 42.74,96.25 -7.54,44.74 -33.85,81.99 -62.56,91.96 1.05,0.1 2.1,0.16 3.18,0.17 34.25,0.51 69.22,-41.83 78.11,-94.58 8.89,-52.73 -11.67,-95.9 -45.92,-96.42 z"
   id="path1107" />
	<path
   class="st9"
   d="m 715.49,357.39 c -24.7,-0.37 -49.92,30.17 -56.34,68.21 -6.41,38.04 8.42,69.17 33.12,69.54 24.7,0.37 49.92,-30.17 56.34,-68.21 6.41,-38.04 -8.42,-69.17 -33.12,-69.54 z"
   id="path1109" />
	<path
   class="st1"
   d="m 721.18,367.77 c -21.02,-0.31 -42.48,25.67 -47.94,58.03 -5.46,32.37 7.16,58.86 28.18,59.17 21.02,0.31 42.48,-25.67 47.93,-58.04 5.47,-32.35 -7.15,-58.85 -28.17,-59.16 z"
   id="path1111" />
	<path
   class="st10"
   d="m 342.8,346.84 c -12.39,-0.18 -24.21,7.67 -33.28,20.52 -9,12.74 -15.33,30.43 -16.84,50.02 -1.51,19.6 2.08,37.43 9.09,50.41 7.08,13.09 17.65,21.28 30.04,21.46 12.39,0.19 24.21,-7.67 33.28,-20.52 9,-12.74 15.33,-30.43 16.84,-50.02 1.51,-19.6 -2.08,-37.43 -9.09,-50.41 -7.08,-13.09 -17.65,-21.28 -30.04,-21.46 z m 37.64,71.85 c -1.49,19.31 -7.71,36.72 -16.55,49.24 -8.77,12.41 -20.12,20.01 -31.96,19.83 -11.84,-0.18 -21.99,-8.09 -28.83,-20.74 -6.89,-12.75 -10.42,-30.3 -8.93,-49.62 1.49,-19.31 7.71,-36.72 16.55,-49.24 8.77,-12.41 20.12,-20.01 31.96,-19.83 11.84,0.18 21.99,8.09 28.83,20.74 6.89,12.76 10.41,30.3 8.93,49.62 z"
   id="path1113" />
	<path
   class="st1"
   d="m 339.87,384.8 c -5.79,-0.09 -11.3,3.58 -15.54,9.58 -4.2,5.95 -7.16,14.21 -7.86,23.36 -0.71,9.15 0.97,17.48 4.25,23.54 3.3,6.11 8.24,9.94 14.03,10.02 5.79,0.09 11.3,-3.58 15.54,-9.58 4.2,-5.95 7.16,-14.21 7.86,-23.36 0.7,-9.15 -0.97,-17.48 -4.25,-23.54 -3.31,-6.11 -8.24,-9.94 -14.03,-10.02 z m 17.58,33.55 c -0.7,9.02 -3.6,17.14 -7.73,22.99 -4.1,5.8 -9.39,9.34 -14.92,9.26 -5.53,-0.08 -10.27,-3.78 -13.46,-9.68 -3.22,-5.96 -4.86,-14.15 -4.17,-23.17 0.69,-9.02 3.6,-17.15 7.73,-22.99 4.1,-5.8 9.39,-9.34 14.92,-9.26 5.53,0.08 10.27,3.78 13.46,9.68 3.22,5.95 4.86,14.15 4.17,23.17 z"
   id="path1115" />
	<path
   class="st0"
   d="m 706.66,407.74 13.54,-4.92 c 2.62,-0.95 4.56,0.76 4.33,3.81 v 0 c -0.23,3.05 -2.57,6.32 -5.18,7.27 l -13.54,4.92 c -2.62,0.95 -4.56,-0.76 -4.33,-3.81 v 0 c 0.23,-3.05 2.56,-6.32 5.18,-7.27 z"
   id="path1117" />
	<path
   class="st0"
   d="m 705.54,422.18 13.54,-4.92 c 2.62,-0.95 4.56,0.76 4.33,3.81 v 0 c -0.23,3.05 -2.57,6.32 -5.18,7.27 l -13.54,4.92 c -2.62,0.95 -4.56,-0.76 -4.33,-3.81 v 0 c 0.23,-3.05 2.57,-6.32 5.18,-7.27 z"
   id="path1119" />
	<path
   class="st11"
   d="m 573.83,262.78 c 15.31,0.23 27.4,4.66 26.99,9.91 -0.4,5.24 -13.15,9.31 -28.46,9.08 -15.31,-0.23 -27.4,-4.66 -26.99,-9.91 0.4,-5.24 13.14,-9.31 28.46,-9.08 z"
   id="path1121" />
	<path
   class="st11"
   d="m 469.76,270.1 c 3.58,0.05 6.4,1.09 6.31,2.32 -0.09,1.23 -3.07,2.18 -6.65,2.12 -3.58,-0.05 -6.4,-1.09 -6.31,-2.32 0.1,-1.22 3.07,-2.17 6.65,-2.12 z"
   id="path1123" />
	<polygon
   class="st0"
   points="1160,517.14 421.89,772 453.59,772 1160,527.81 "
   id="polygon1125" />
	<polygon
   class="st1"
   points="1024,674.39 734,772 765.71,772 1024,685.06 "
   id="polygon1127" />
	<g
   id="g1133">
		<polygon
   class="st12"
   points="329.3,402.12 342.41,403.96 342.41,401.27 329.3,399.43 "
   id="polygon1129" />
		<polygon
   class="st12"
   points="336.95,407.73 342.41,408.5 342.41,405.81 336.95,405.04 "
   id="polygon1131" />
	</g>
	<path
   class="st12"
   d="m 717.19,330.72 c -1.27,-0.02 -2.55,0.02 -3.82,0.12 32.76,2.5 52.12,44.85 43.45,96.31 -8.57,50.82 -41.35,91.98 -74.37,94.46 0.84,0.07 1.7,0.11 2.55,0.12 34.25,0.51 69.22,-41.83 78.11,-94.58 8.89,-52.75 -11.66,-95.92 -45.92,-96.43 z"
   id="path1135" />
	<g
   id="g1149">
		<path
   class="st10"
   d="m 470.53,355.66 c -1.32,-0.31 -2.38,1.02 -2.38,2.97 0,1.95 1.07,3.78 2.38,4.09 1.32,0.31 2.39,-1.02 2.39,-2.97 0,-1.95 -1.07,-3.78 -2.39,-4.09 z"
   id="path1137" />
		<path
   class="st12"
   d="m 464.63,354.28 c -1.32,-0.31 -2.38,1.02 -2.38,2.97 0,1.95 1.07,3.78 2.38,4.09 1.32,0.31 2.39,-1.02 2.39,-2.97 -0.01,-1.96 -1.08,-3.79 -2.39,-4.09 z"
   id="path1139" />
		<path
   class="st12"
   d="m 458.72,352.89 c -1.32,-0.31 -2.38,1.02 -2.38,2.97 0,1.95 1.07,3.78 2.38,4.09 1.32,0.31 2.39,-1.02 2.39,-2.97 -0.01,-1.95 -1.07,-3.78 -2.39,-4.09 z"
   id="path1141" />
		<path
   class="st12"
   d="m 470.53,365.26 c -1.32,-0.31 -2.38,1.02 -2.38,2.97 0,1.95 1.07,3.78 2.38,4.09 1.32,0.31 2.39,-1.02 2.39,-2.97 0,-1.95 -1.07,-3.78 -2.39,-4.09 z"
   id="path1143" />
		<path
   class="st12"
   d="m 464.63,363.88 c -1.32,-0.31 -2.38,1.02 -2.38,2.97 0,1.95 1.07,3.78 2.38,4.09 1.32,0.31 2.39,-1.02 2.39,-2.97 -0.01,-1.95 -1.08,-3.78 -2.39,-4.09 z"
   id="path1145" />
		<path
   class="st12"
   d="m 458.72,362.5 c -1.32,-0.31 -2.38,1.02 -2.38,2.97 0,1.95 1.07,3.78 2.38,4.09 1.32,0.31 2.39,-1.02 2.39,-2.97 -0.01,-1.96 -1.07,-3.78 -2.39,-4.09 z"
   id="path1147" />
	</g>
	<g
   id="g1163">
		<path
   class="st12"
   d="m 360.08,503.65 c -1.32,-0.31 -2.38,1.02 -2.38,2.97 0,1.95 1.07,3.78 2.38,4.09 1.32,0.31 2.39,-1.02 2.39,-2.97 0,-1.95 -1.07,-3.78 -2.39,-4.09 z"
   id="path1151" />
		<path
   class="st12"
   d="m 354.18,502.27 c -1.32,-0.31 -2.39,1.02 -2.39,2.97 0,1.95 1.07,3.78 2.39,4.09 1.32,0.31 2.38,-1.02 2.38,-2.97 0,-1.95 -1.06,-3.78 -2.38,-4.09 z"
   id="path1153" />
		<path
   class="st12"
   d="m 348.27,500.89 c -1.32,-0.31 -2.39,1.02 -2.39,2.97 0,1.95 1.07,3.78 2.39,4.09 1.32,0.31 2.38,-1.02 2.38,-2.97 0.01,-1.95 -1.06,-3.78 -2.38,-4.09 z"
   id="path1155" />
		<path
   class="st12"
   d="m 360.08,513.25 c -1.32,-0.31 -2.38,1.02 -2.38,2.97 0,1.95 1.07,3.78 2.38,4.09 1.32,0.31 2.39,-1.02 2.39,-2.97 0,-1.95 -1.07,-3.78 -2.39,-4.09 z"
   id="path1157" />
		<path
   class="st12"
   d="m 354.18,511.87 c -1.32,-0.31 -2.39,1.02 -2.39,2.97 0,1.95 1.07,3.78 2.39,4.09 1.32,0.31 2.38,-1.02 2.38,-2.97 0,-1.95 -1.06,-3.78 -2.38,-4.09 z"
   id="path1159" />
		<path
   class="st12"
   d="m 348.27,510.49 c -1.32,-0.31 -2.39,1.02 -2.39,2.97 0,1.95 1.07,3.78 2.39,4.09 1.32,0.31 2.38,-1.02 2.38,-2.97 0.01,-1.95 -1.06,-3.78 -2.38,-4.09 z"
   id="path1161" />
	</g>
	<path
   class="st1"
   d="m 414.22,267.57 c -1.44,0.86 -2.86,1.73 -4.27,2.61 -51.81,32.28 -64.18,60.83 -27.62,63.76 36.56,2.94 108.19,-20.86 160,-53.14 1.41,-0.88 2.78,-1.75 4.13,-2.62 -51.41,30.94 -120.17,53.38 -155.73,50.53 -35.55,-2.85 -24.82,-29.95 23.49,-61.14 z"
   id="path1165" />
	<path
   class="st1"
   d="m 218.34,485.84 c 2.76,-3.89 6.04,-6.21 7.31,-5.18 1.27,1.03 0.07,5.02 -2.7,8.91 -2.76,3.89 -6.04,6.21 -7.31,5.18 -1.28,-1.04 -0.07,-5.03 2.7,-8.91 z"
   id="path1167" />
	<path
   class="st1"
   d="m 233.86,458.64 c 1.38,-1.94 3.02,-3.1 3.66,-2.59 0.64,0.51 0.03,2.51 -1.35,4.45 -1.38,1.95 -3.02,3.1 -3.66,2.59 -0.63,-0.51 -0.03,-2.5 1.35,-4.45 z"
   id="path1169" />
	<g
   id="g1189">
		<polygon
   class="st11"
   points="491.41,432.61 512.82,436.56 514.41,431.64 492.99,427.7 "
   id="polygon1171" />
		<polygon
   class="st11"
   points="498.75,426.41 510.08,428.5 511.67,423.58 500.33,421.49 "
   id="polygon1173" />
		<polygon
   class="st11"
   points="493.22,443.54 507.78,435.63 509.37,430.71 494.81,438.63 "
   id="polygon1175" />
		<polygon
   class="st11"
   points="487.84,443.68 509.25,447.63 511.36,441.11 489.94,437.16 "
   id="polygon1177" />
		<polygon
   class="st11"
   points="512.99,442.25 517.4,443.07 519.5,436.55 515.09,435.74 "
   id="polygon1179" />
		<polygon
   class="st11"
   points="519.45,442.08 523.86,442.89 525.13,438.96 520.72,438.14 "
   id="polygon1181" />
		<g
   id="g1187">
			<polygon
   class="st11"
   points="508.18,418.51 511.02,419.03 511.81,416.57 508.98,416.05 "
   id="polygon1183" />
			<polygon
   class="st11"
   points="503.68,417.68 506.51,418.2 507.31,415.74 504.47,415.22 "
   id="polygon1185" />
		</g>
	</g>
	<path
   class="st12"
   d="m 330.88,362.41 -0.18,-1 14.12,5.16 -11.52,9.65 z m 3.22,11.59 8.4,-7.03 -10.28,-3.76 0.94,5.4 z"
   id="path1191" />
	<path
   class="st0"
   d="m 678.17,287.81 c -15.46,2.31 -27.5,7.49 -26.89,11.57 0.61,4.08 13.64,5.52 29.1,3.21 15.46,-2.31 27.5,-7.49 26.89,-11.57 -0.61,-4.08 -13.64,-5.52 -29.1,-3.21 z"
   id="path1193" />
	<path
   class="st12"
   d="m 677.48,288.58 c -9.76,1.46 -17.35,4.72 -16.97,7.3 0.39,2.58 8.6,3.48 18.36,2.03 9.76,-1.46 17.35,-4.72 16.97,-7.3 -0.39,-2.57 -8.6,-3.48 -18.36,-2.03 z"
   id="path1195" />
	<path
   class="st1"
   d="m 677.83,289.16 c -3.81,0.57 -6.77,1.84 -6.62,2.85 0.15,1 3.36,1.36 7.16,0.79 3.81,-0.57 6.77,-1.84 6.62,-2.85 -0.15,-1 -3.36,-1.36 -7.16,-0.79 z"
   id="path1197" />
	<path
   class="st1"
   d="M 383.33,772 H 232.05 l 207.91,-69.98 106.88,14.95 z M 1160,504.16 v -50.92 l -681.03,235.65 106.88,14.95 z"
   id="path1199" />
	<path
   class="st12"
   d="m 335.88,368.85 -0.18,-1 14.12,5.16 -11.52,9.65 z m 3.23,11.59 8.4,-7.03 -10.28,-3.76 0.94,5.4 z"
   id="path1201" />
</g>
</svg>
