<?xml version="1.0" encoding="UTF-8" standalone="no"?>
<!-- Generator: Adobe Illustrator 26.0.3, SVG Export Plug-In . SVG Version: 6.00 Build 0)  -->

<svg
   version="1.1"
   id="Ebene_1"
   x="0px"
   y="0px"
   viewBox="0 0 40.062862 38.742354"
   xml:space="preserve"
   width="40.062862"
   height="38.742355"
   xmlns:xlink="http://www.w3.org/1999/xlink"
   xmlns="http://www.w3.org/2000/svg"
   xmlns:svg="http://www.w3.org/2000/svg"><defs
   id="defs14751"><clipPath
     id="SVGID_00000147929494248088433640000003028076616205719955_-7"><use
       xlink:href="#SVGID_1_"
       style="overflow:visible"
       id="use14719-7"
       x="0"
       y="0"
       width="100%"
       height="100%" /></clipPath><clipPath
     id="SVGID_00000147929494248088433640000003028076616205719955_-1"><use
       xlink:href="#SVGID_1_"
       style="overflow:visible"
       id="use14719-0"
       x="0"
       y="0"
       width="100%"
       height="100%" /></clipPath><clipPath
     id="SVGID_00000147929494248088433640000003028076616205719955_-7-9"><use
       xlink:href="#SVGID_1_"
       style="overflow:visible"
       id="use14719-7-0"
       x="0"
       y="0"
       width="100%"
       height="100%" /></clipPath><clipPath
     id="SVGID_00000147929494248088433640000003028076616205719955_-1-4"><use
       xlink:href="#SVGID_1_"
       style="overflow:visible"
       id="use14719-0-9"
       x="0"
       y="0"
       width="100%"
       height="100%" /></clipPath><clipPath
     id="SVGID_00000147929494248088433640000003028076616205719955_-7-7"><use
       xlink:href="#SVGID_1_"
       style="overflow:visible"
       id="use14719-7-5"
       x="0"
       y="0"
       width="100%"
       height="100%" /></clipPath><clipPath
     id="SVGID_00000147929494248088433640000003028076616205719955_-1-1"><use
       xlink:href="#SVGID_1_"
       style="overflow:visible"
       id="use14719-0-6"
       x="0"
       y="0"
       width="100%"
       height="100%" /></clipPath><clipPath
     id="SVGID_00000147929494248088433640000003028076616205719955_-7-9-4"><use
       xlink:href="#SVGID_1_"
       style="overflow:visible"
       id="use14719-7-0-4"
       x="0"
       y="0"
       width="100%"
       height="100%" /></clipPath><clipPath
     id="SVGID_00000147929494248088433640000003028076616205719955_-4"><use
       xlink:href="#SVGID_1_"
       style="overflow:visible"
       id="use14719-75"
       x="0"
       y="0"
       width="100%"
       height="100%" /></clipPath><clipPath
     id="SVGID_00000147929494248088433640000003028076616205719955_-7-7-5"><use
       xlink:href="#SVGID_1_"
       style="overflow:visible"
       id="use14719-7-5-2"
       x="0"
       y="0"
       width="100%"
       height="100%" /></clipPath><clipPath
     id="SVGID_00000147929494248088433640000003028076616205719955_-1-4-6"><use
       xlink:href="#SVGID_1_"
       style="overflow:visible"
       id="use14719-0-9-1"
       x="0"
       y="0"
       width="100%"
       height="100%" /></clipPath><clipPath
     id="SVGID_00000147929494248088433640000003028076616205719955_-7-7-6"><use
       xlink:href="#SVGID_1_"
       style="overflow:visible"
       id="use14719-7-5-7"
       x="0"
       y="0"
       width="100%"
       height="100%" /></clipPath><clipPath
     id="SVGID_00000147929494248088433640000003028076616205719955_-1-4-6-8"><use
       xlink:href="#SVGID_1_"
       style="overflow:visible"
       id="use14719-0-9-1-4"
       x="0"
       y="0"
       width="100%"
       height="100%" /></clipPath><clipPath
     id="SVGID_00000147929494248088433640000003028076616205719955_-1-4-6-8-8"><use
       xlink:href="#SVGID_1_"
       style="overflow:visible"
       id="use14719-0-9-1-4-8"
       x="0"
       y="0"
       width="100%"
       height="100%" /></clipPath></defs>
<style
   type="text/css"
   id="style14714">
	.st0{clip-path:url(#SVGID_00000065775500933186308070000015705095344002610617_);fill:#0BBBEF;}
	.st1{clip-path:url(#SVGID_00000065775500933186308070000015705095344002610617_);}
	.st2{fill:#FFFFFF;}
	.st3{font-family:'Arial-Black';}
	.st4{font-size:18px;}
</style>
<g
   id="g14734"
   transform="translate(-886.6338,-523.00307)">
	<defs
   id="defs14717">
		<rect
   id="SVGID_1_"
   x="855.76001"
   y="511.34"
   width="208.52"
   height="57.360001" />
	</defs>
	<clipPath
   id="SVGID_00000147929494248088433640000003028076616205719955_">
		<use
   xlink:href="#SVGID_1_"
   style="overflow:visible"
   id="use14719"
   x="0"
   y="0"
   width="100%"
   height="100%" />
	</clipPath>
	
	
	
	
	
	
<g
   id="g3321"
   transform="matrix(0.90863517,0,0,0.90863517,38.750586,116.42214)"><g
     id="g2772"
     transform="translate(1.1122965,2.337929)"><path
       d="m 1032.13,556.35 -0.09,0.14 -0.19,0.27 c -0.13,0.18 -0.26,0.37 -0.39,0.55 -0.52,0.73 -1.04,1.49 -1.57,2.27 -0.53,0.78 -0.98,1.62 -1.53,2.41 -0.52,0.81 -1.08,1.61 -1.65,2.41 l -0.21,0.3 -0.11,0.15 -0.11,0.19 c -0.13,0.27 -0.13,0.59 -0.03,0.87 0.03,0.07 0.06,0.14 0.1,0.2 0.04,0.06 0.09,0.14 0.14,0.19 0.05,0.05 0.07,0.08 0.15,0.14 l 0.14,0.12 0.58,0.47 c 0.39,0.32 0.77,0.63 1.16,0.95 0.2,0.16 0.38,0.31 0.59,0.47 0.13,0.1 0.28,0.16 0.44,0.21 0.09,0.02 0.18,0.03 0.27,0.03 l 0.19,-0.01 c 0,0 0.08,-0.01 0.06,-0.01 l 0.03,-0.01 0.06,-0.02 0.12,-0.03 c 0.08,-0.03 0.15,-0.07 0.22,-0.11 0.07,-0.04 0.15,-0.11 0.21,-0.16 0.07,-0.06 0.09,-0.1 0.13,-0.15 l 0.05,-0.06 0.03,-0.04 0.05,-0.08 0.1,-0.16 0.2,-0.31 c 0.28,-0.41 0.54,-0.84 0.8,-1.26 0.52,-0.85 1.07,-1.67 1.66,-2.46 0.59,-0.79 1.17,-1.57 1.73,-2.36 0.55,-0.79 1.08,-1.58 1.6,-2.36 0.52,-0.78 1.03,-1.54 1.54,-2.29 0.12,-0.2 0.25,-0.33 0.39,-0.66 0.11,-0.3 0.11,-0.64 0.01,-0.94 -0.02,-0.07 -0.07,-0.16 -0.11,-0.24 -0.05,-0.08 -0.07,-0.1 -0.1,-0.15 l -0.05,-0.06 -0.03,-0.03 -0.05,-0.06 -0.11,-0.12 c -0.14,-0.17 -0.28,-0.33 -0.42,-0.49 -1.12,-1.3 -2.17,-2.54 -3.15,-3.68 -0.96,-1.15 -1.95,-2.11 -2.78,-3 -0.84,-0.88 -1.51,-1.71 -2.06,-2.38 -0.28,-0.34 -0.53,-0.64 -0.75,-0.89 -0.05,-0.06 -0.14,-0.14 -0.21,-0.21 -0.08,-0.07 -0.17,-0.11 -0.25,-0.16 -0.17,-0.08 -0.34,-0.12 -0.49,-0.12 -0.15,-0.01 -0.29,0.02 -0.4,0.05 -0.11,0.03 -0.23,0.09 -0.29,0.13 -0.1,0.07 -0.15,0.1 -0.15,0.1 -0.01,0.01 -0.02,0.01 -0.02,0.02 v 0 c 0,0 -0.77,0.64 -2.08,1.79 -0.17,0.15 -0.39,0.42 -0.44,0.73 -0.06,0.27 -0.01,0.62 0.18,0.9 0.18,0.25 0.36,0.42 0.55,0.64 0.19,0.21 0.38,0.43 0.58,0.66 0.81,0.91 1.64,2.01 2.55,3.2 0.46,0.59 0.94,1.21 1.46,1.83 0.53,0.61 1.08,1.23 1.64,1.89 l 0.11,0.12 0.06,0.07 c 0.03,0.05 0.05,0.1 0.07,0.16 0.03,0.11 0,0.26 -0.03,0.32 z"
       clip-path="url(#SVGID_00000147929494248088433640000003028076616205719955_)"
       id="path14724"
       transform="matrix(0.39735752,0.68300028,-0.58404733,0.46468031,857.09644,-480.77301)"
       style="fill:none;fill-opacity:1;stroke:#000000;stroke-opacity:1" /><path
       d="m 996.7,559.32 c -0.01,0.05 -0.1,0.23 -0.26,0.32 -0.09,0.07 -0.63,0.07 -1.1,0.11 -0.5,0.03 -1.06,0.07 -1.67,0.12 -0.61,0.05 -1.27,0.12 -1.97,0.19 -0.7,0.07 -1.44,0.12 -2.2,0.19 -0.38,0.03 -0.77,0.06 -1.16,0.08 -0.21,0.02 -0.35,0 -0.45,-0.04 -0.07,-0.02 -0.12,-0.07 -0.18,-0.11 -0.02,-0.02 -0.15,-0.15 -0.14,-0.17 -0.03,-0.04 -0.05,-0.12 -0.07,-0.18 l -0.02,-0.1 c -0.01,-0.04 -0.01,-0.1 -0.01,-0.15 l -0.04,-0.61 c -0.02,-0.41 -0.05,-0.81 -0.07,-1.22 0,-0.19 0.03,-0.27 0.11,-0.4 0.07,-0.12 0.19,-0.21 0.32,-0.26 0.07,-0.03 0.13,-0.03 0.21,-0.05 l 0.3,-0.02 0.6,-0.03 c 0.8,-0.03 1.59,-0.08 2.36,-0.1 0.77,-0.02 1.51,-0.03 2.21,-0.07 0.7,-0.03 1.36,-0.06 1.98,-0.09 0.15,-0.01 0.3,-0.02 0.45,-0.03 l 0.11,-0.01 h 0.03 0.01 0.03 c 0.07,0 0.16,0 0.16,0.02 0.09,0.02 0.26,0.13 0.31,0.25 0.02,0.03 0.05,0.11 0.05,0.17 l 0.01,0.05 0.01,0.09 c 0,0.06 0.01,0.11 0.01,0.16 0.01,0.22 0.02,0.41 0.04,0.59 0.04,0.62 0.06,1.01 0.07,1.1 0,0.01 0,0.03 0,0.05 -0.02,0.05 -0.03,0.15 -0.04,0.15 m 0.91,-0.19 c 0,-0.01 0,-0.03 0,-0.04 0,0 -0.02,-0.41 -0.07,-1.12 -0.01,-0.18 -0.02,-0.38 -0.04,-0.59 0,-0.05 -0.01,-0.11 -0.01,-0.17 l -0.01,-0.08 -0.02,-0.12 c -0.01,-0.08 -0.03,-0.17 -0.06,-0.25 -0.03,-0.08 -0.06,-0.16 -0.12,-0.26 -0.19,-0.31 -0.47,-0.55 -0.92,-0.66 -0.14,-0.03 -0.19,-0.03 -0.26,-0.03 h -0.05 -0.1 l -0.11,0.01 c -0.15,0.01 -0.3,0.02 -0.45,0.03 -0.61,0.05 -1.27,0.1 -1.97,0.15 -0.7,0.05 -1.44,0.14 -2.2,0.2 -0.76,0.08 -1.55,0.12 -2.36,0.19 l -0.6,0.04 -0.3,0.02 c -0.12,0.02 -0.26,0.03 -0.38,0.08 -0.25,0.09 -0.48,0.26 -0.62,0.49 -0.15,0.21 -0.22,0.54 -0.21,0.76 0.03,0.41 0.05,0.82 0.08,1.22 l 0.04,0.61 0.01,0.16 0.03,0.2 c 0.04,0.13 0.07,0.25 0.16,0.37 0.04,0.06 0.08,0.13 0.12,0.16 l 0.05,0.05 0.03,0.03 0.01,0.01 c 0.04,0.04 0.02,0.02 0.03,0.03 l 0.01,0.01 c 0.1,0.08 0.21,0.15 0.33,0.2 0.26,0.11 0.54,0.1 0.71,0.09 0.39,-0.02 0.78,-0.05 1.16,-0.06 0.77,-0.03 1.51,-0.07 2.21,-0.08 0.7,-0.02 1.37,-0.03 1.98,-0.05 0.61,-0.03 1.17,-0.06 1.67,-0.09 0.25,-0.02 0.48,-0.03 0.7,-0.04 0.17,0 0.52,-0.04 0.75,-0.15 0.23,-0.13 0.41,-0.28 0.52,-0.45 0.06,-0.08 0.1,-0.16 0.14,-0.24 0.04,-0.07 0.06,-0.16 0.08,-0.24 0.04,-0.18 0.03,-0.23 0.04,-0.29 0,-0.07 0,-0.1 0,-0.1"
       clip-path="url(#SVGID_00000147929494248088433640000003028076616205719955_-1-4)"
       id="path14730-0-1"
       transform="rotate(-154.35052,963.0551,507.48823)"
       style="fill:#000000;fill-opacity:1" /><path
       d="m 996.7,559.32 c -0.01,0.05 -0.1,0.23 -0.26,0.32 -0.09,0.07 -0.63,0.07 -1.1,0.11 -0.5,0.03 -1.06,0.07 -1.67,0.12 -0.61,0.05 -1.27,0.12 -1.97,0.19 -0.7,0.07 -1.44,0.12 -2.2,0.19 -0.38,0.03 -0.77,0.06 -1.16,0.08 -0.21,0.02 -0.35,0 -0.45,-0.04 -0.07,-0.02 -0.12,-0.07 -0.18,-0.11 -0.02,-0.02 -0.15,-0.15 -0.14,-0.17 -0.03,-0.04 -0.05,-0.12 -0.07,-0.18 l -0.02,-0.1 c -0.01,-0.04 -0.01,-0.1 -0.01,-0.15 l -0.04,-0.61 c -0.02,-0.41 -0.05,-0.81 -0.07,-1.22 0,-0.19 0.03,-0.27 0.11,-0.4 0.07,-0.12 0.19,-0.21 0.32,-0.26 0.07,-0.03 0.13,-0.03 0.21,-0.05 l 0.3,-0.02 0.6,-0.03 c 0.8,-0.03 1.59,-0.08 2.36,-0.1 0.77,-0.02 1.51,-0.03 2.21,-0.07 0.7,-0.03 1.36,-0.06 1.98,-0.09 0.15,-0.01 0.3,-0.02 0.45,-0.03 l 0.11,-0.01 h 0.03 0.01 0.03 c 0.07,0 0.16,0 0.16,0.02 0.09,0.02 0.26,0.13 0.31,0.25 0.02,0.03 0.05,0.11 0.05,0.17 l 0.01,0.05 0.01,0.09 c 0,0.06 0.01,0.11 0.01,0.16 0.01,0.22 0.02,0.41 0.04,0.59 0.04,0.62 0.06,1.01 0.07,1.1 0,0.01 0,0.03 0,0.05 -0.02,0.05 -0.03,0.15 -0.04,0.15 m 0.91,-0.19 c 0,-0.01 0,-0.03 0,-0.04 0,0 -0.02,-0.41 -0.07,-1.12 -0.01,-0.18 -0.02,-0.38 -0.04,-0.59 0,-0.05 -0.01,-0.11 -0.01,-0.17 l -0.01,-0.08 -0.02,-0.12 c -0.01,-0.08 -0.03,-0.17 -0.06,-0.25 -0.03,-0.08 -0.06,-0.16 -0.12,-0.26 -0.19,-0.31 -0.47,-0.55 -0.92,-0.66 -0.14,-0.03 -0.19,-0.03 -0.26,-0.03 h -0.05 -0.1 l -0.11,0.01 c -0.15,0.01 -0.3,0.02 -0.45,0.03 -0.61,0.05 -1.27,0.1 -1.97,0.15 -0.7,0.05 -1.44,0.14 -2.2,0.2 -0.76,0.08 -1.55,0.12 -2.36,0.19 l -0.6,0.04 -0.3,0.02 c -0.12,0.02 -0.26,0.03 -0.38,0.08 -0.25,0.09 -0.48,0.26 -0.62,0.49 -0.15,0.21 -0.22,0.54 -0.21,0.76 0.03,0.41 0.05,0.82 0.08,1.22 l 0.04,0.61 0.01,0.16 0.03,0.2 c 0.04,0.13 0.07,0.25 0.16,0.37 0.04,0.06 0.08,0.13 0.12,0.16 l 0.05,0.05 0.03,0.03 0.01,0.01 c 0.04,0.04 0.02,0.02 0.03,0.03 l 0.01,0.01 c 0.1,0.08 0.21,0.15 0.33,0.2 0.26,0.11 0.54,0.1 0.71,0.09 0.39,-0.02 0.78,-0.05 1.16,-0.06 0.77,-0.03 1.51,-0.07 2.21,-0.08 0.7,-0.02 1.37,-0.03 1.98,-0.05 0.61,-0.03 1.17,-0.06 1.67,-0.09 0.25,-0.02 0.48,-0.03 0.7,-0.04 0.17,0 0.52,-0.04 0.75,-0.15 0.23,-0.13 0.41,-0.28 0.52,-0.45 0.06,-0.08 0.1,-0.16 0.14,-0.24 0.04,-0.07 0.06,-0.16 0.08,-0.24 0.04,-0.18 0.03,-0.23 0.04,-0.29 0,-0.07 0,-0.1 0,-0.1"
       clip-path="url(#SVGID_00000147929494248088433640000003028076616205719955_-1-4-6)"
       id="path14730-0-1-9"
       transform="rotate(-55.273291,899.34131,534.85549)"
       style="fill:#000000;fill-opacity:1" /><path
       d="m 996.7,559.32 c -0.01,0.05 -0.1,0.23 -0.26,0.32 -0.09,0.07 -0.63,0.07 -1.1,0.11 -0.5,0.03 -1.06,0.07 -1.67,0.12 -0.61,0.05 -1.27,0.12 -1.97,0.19 -0.7,0.07 -1.44,0.12 -2.2,0.19 -0.38,0.03 -0.77,0.06 -1.16,0.08 -0.21,0.02 -0.35,0 -0.45,-0.04 -0.07,-0.02 -0.12,-0.07 -0.18,-0.11 -0.02,-0.02 -0.15,-0.15 -0.14,-0.17 -0.03,-0.04 -0.05,-0.12 -0.07,-0.18 l -0.02,-0.1 c -0.01,-0.04 -0.01,-0.1 -0.01,-0.15 l -0.04,-0.61 c -0.02,-0.41 -0.05,-0.81 -0.07,-1.22 0,-0.19 0.03,-0.27 0.11,-0.4 0.07,-0.12 0.19,-0.21 0.32,-0.26 0.07,-0.03 0.13,-0.03 0.21,-0.05 l 0.3,-0.02 0.6,-0.03 c 0.8,-0.03 1.59,-0.08 2.36,-0.1 0.77,-0.02 1.51,-0.03 2.21,-0.07 0.7,-0.03 1.36,-0.06 1.98,-0.09 0.15,-0.01 0.3,-0.02 0.45,-0.03 l 0.11,-0.01 h 0.03 0.01 0.03 c 0.07,0 0.16,0 0.16,0.02 0.09,0.02 0.26,0.13 0.31,0.25 0.02,0.03 0.05,0.11 0.05,0.17 l 0.01,0.05 0.01,0.09 c 0,0.06 0.01,0.11 0.01,0.16 0.01,0.22 0.02,0.41 0.04,0.59 0.04,0.62 0.06,1.01 0.07,1.1 0,0.01 0,0.03 0,0.05 -0.02,0.05 -0.03,0.15 -0.04,0.15 m 0.91,-0.19 c 0,-0.01 0,-0.03 0,-0.04 0,0 -0.02,-0.41 -0.07,-1.12 -0.01,-0.18 -0.02,-0.38 -0.04,-0.59 0,-0.05 -0.01,-0.11 -0.01,-0.17 l -0.01,-0.08 -0.02,-0.12 c -0.01,-0.08 -0.03,-0.17 -0.06,-0.25 -0.03,-0.08 -0.06,-0.16 -0.12,-0.26 -0.19,-0.31 -0.47,-0.55 -0.92,-0.66 -0.14,-0.03 -0.19,-0.03 -0.26,-0.03 h -0.05 -0.1 l -0.11,0.01 c -0.15,0.01 -0.3,0.02 -0.45,0.03 -0.61,0.05 -1.27,0.1 -1.97,0.15 -0.7,0.05 -1.44,0.14 -2.2,0.2 -0.76,0.08 -1.55,0.12 -2.36,0.19 l -0.6,0.04 -0.3,0.02 c -0.12,0.02 -0.26,0.03 -0.38,0.08 -0.25,0.09 -0.48,0.26 -0.62,0.49 -0.15,0.21 -0.22,0.54 -0.21,0.76 0.03,0.41 0.05,0.82 0.08,1.22 l 0.04,0.61 0.01,0.16 0.03,0.2 c 0.04,0.13 0.07,0.25 0.16,0.37 0.04,0.06 0.08,0.13 0.12,0.16 l 0.05,0.05 0.03,0.03 0.01,0.01 c 0.04,0.04 0.02,0.02 0.03,0.03 l 0.01,0.01 c 0.1,0.08 0.21,0.15 0.33,0.2 0.26,0.11 0.54,0.1 0.71,0.09 0.39,-0.02 0.78,-0.05 1.16,-0.06 0.77,-0.03 1.51,-0.07 2.21,-0.08 0.7,-0.02 1.37,-0.03 1.98,-0.05 0.61,-0.03 1.17,-0.06 1.67,-0.09 0.25,-0.02 0.48,-0.03 0.7,-0.04 0.17,0 0.52,-0.04 0.75,-0.15 0.23,-0.13 0.41,-0.28 0.52,-0.45 0.06,-0.08 0.1,-0.16 0.14,-0.24 0.04,-0.07 0.06,-0.16 0.08,-0.24 0.04,-0.18 0.03,-0.23 0.04,-0.29 0,-0.07 0,-0.1 0,-0.1"
       clip-path="url(#SVGID_00000147929494248088433640000003028076616205719955_-1-4-6-8)"
       id="path14730-0-1-9-2"
       transform="rotate(-55.273291,899.25167,534.56986)"
       style="fill:#000000;fill-opacity:1" /><path
       d="m 996.7,559.32 c -0.01,0.05 -0.1,0.23 -0.26,0.32 -0.09,0.07 -0.63,0.07 -1.1,0.11 -0.5,0.03 -1.06,0.07 -1.67,0.12 -0.61,0.05 -1.27,0.12 -1.97,0.19 -0.7,0.07 -1.44,0.12 -2.2,0.19 -0.38,0.03 -0.77,0.06 -1.16,0.08 -0.21,0.02 -0.35,0 -0.45,-0.04 -0.07,-0.02 -0.12,-0.07 -0.18,-0.11 -0.02,-0.02 -0.15,-0.15 -0.14,-0.17 -0.03,-0.04 -0.05,-0.12 -0.07,-0.18 l -0.02,-0.1 c -0.01,-0.04 -0.01,-0.1 -0.01,-0.15 l -0.04,-0.61 c -0.02,-0.41 -0.05,-0.81 -0.07,-1.22 0,-0.19 0.03,-0.27 0.11,-0.4 0.07,-0.12 0.19,-0.21 0.32,-0.26 0.07,-0.03 0.13,-0.03 0.21,-0.05 l 0.3,-0.02 0.6,-0.03 c 0.8,-0.03 1.59,-0.08 2.36,-0.1 0.77,-0.02 1.51,-0.03 2.21,-0.07 0.7,-0.03 1.36,-0.06 1.98,-0.09 0.15,-0.01 0.3,-0.02 0.45,-0.03 l 0.11,-0.01 h 0.03 0.01 0.03 c 0.07,0 0.16,0 0.16,0.02 0.09,0.02 0.26,0.13 0.31,0.25 0.02,0.03 0.05,0.11 0.05,0.17 l 0.01,0.05 0.01,0.09 c 0,0.06 0.01,0.11 0.01,0.16 0.01,0.22 0.02,0.41 0.04,0.59 0.04,0.62 0.06,1.01 0.07,1.1 0,0.01 0,0.03 0,0.05 -0.02,0.05 -0.03,0.15 -0.04,0.15 m 0.91,-0.19 c 0,-0.01 0,-0.03 0,-0.04 0,0 -0.02,-0.41 -0.07,-1.12 -0.01,-0.18 -0.02,-0.38 -0.04,-0.59 0,-0.05 -0.01,-0.11 -0.01,-0.17 l -0.01,-0.08 -0.02,-0.12 c -0.01,-0.08 -0.03,-0.17 -0.06,-0.25 -0.03,-0.08 -0.06,-0.16 -0.12,-0.26 -0.19,-0.31 -0.47,-0.55 -0.92,-0.66 -0.14,-0.03 -0.19,-0.03 -0.26,-0.03 h -0.05 -0.1 l -0.11,0.01 c -0.15,0.01 -0.3,0.02 -0.45,0.03 -0.61,0.05 -1.27,0.1 -1.97,0.15 -0.7,0.05 -1.44,0.14 -2.2,0.2 -0.76,0.08 -1.55,0.12 -2.36,0.19 l -0.6,0.04 -0.3,0.02 c -0.12,0.02 -0.26,0.03 -0.38,0.08 -0.25,0.09 -0.48,0.26 -0.62,0.49 -0.15,0.21 -0.22,0.54 -0.21,0.76 0.03,0.41 0.05,0.82 0.08,1.22 l 0.04,0.61 0.01,0.16 0.03,0.2 c 0.04,0.13 0.07,0.25 0.16,0.37 0.04,0.06 0.08,0.13 0.12,0.16 l 0.05,0.05 0.03,0.03 0.01,0.01 c 0.04,0.04 0.02,0.02 0.03,0.03 l 0.01,0.01 c 0.1,0.08 0.21,0.15 0.33,0.2 0.26,0.11 0.54,0.1 0.71,0.09 0.39,-0.02 0.78,-0.05 1.16,-0.06 0.77,-0.03 1.51,-0.07 2.21,-0.08 0.7,-0.02 1.37,-0.03 1.98,-0.05 0.61,-0.03 1.17,-0.06 1.67,-0.09 0.25,-0.02 0.48,-0.03 0.7,-0.04 0.17,0 0.52,-0.04 0.75,-0.15 0.23,-0.13 0.41,-0.28 0.52,-0.45 0.06,-0.08 0.1,-0.16 0.14,-0.24 0.04,-0.07 0.06,-0.16 0.08,-0.24 0.04,-0.18 0.03,-0.23 0.04,-0.29 0,-0.07 0,-0.1 0,-0.1"
       clip-path="url(#SVGID_00000147929494248088433640000003028076616205719955_-1-4-6-8-8)"
       id="path14730-0-1-9-2-4"
       transform="rotate(108.91234,998.41327,489.73997)"
       style="fill:#000000;fill-opacity:1" /><path
       d="m 983.54,560.15 c 0,-0.04 0,-0.07 0,-0.09 0,-0.05 0,-0.08 0,-0.08 v -0.04 c 0,0 -0.03,-0.41 -0.07,-1.12 -0.01,-0.18 -0.02,-0.38 -0.04,-0.59 0,-0.05 -0.01,-0.11 -0.01,-0.17 l -0.01,-0.08 -0.02,-0.12 c -0.01,-0.08 -0.03,-0.17 -0.06,-0.25 -0.03,-0.08 -0.06,-0.17 -0.12,-0.26 -0.19,-0.31 -0.47,-0.55 -0.93,-0.66 -0.14,-0.03 -0.19,-0.02 -0.26,-0.03 h -0.1 -0.05 l -0.11,0.01 c -0.15,0.01 -0.3,0.02 -0.45,0.03 -0.61,0.05 -1.27,0.1 -1.97,0.15 -0.7,0.05 -1.44,0.13 -2.2,0.2 -0.76,0.08 -1.55,0.12 -2.35,0.19 l -0.6,0.04 -0.3,0.02 c -0.11,0.02 -0.26,0.03 -0.38,0.08 -0.25,0.09 -0.47,0.26 -0.61,0.49 -0.04,0.05 -0.07,0.12 -0.1,0.18 -0.03,0.06 -0.05,0.12 -0.07,0.2 -0.04,0.17 -0.04,0.25 -0.04,0.36 0.03,0.42 0.05,0.84 0.08,1.25 l 0.04,0.61 c 0,0.05 0,0.1 0.01,0.16 l 0.03,0.2 c 0.04,0.13 0.07,0.25 0.16,0.38 0.04,0.06 0.08,0.13 0.11,0.15 l 0.05,0.05 0.03,0.03 0.03,0.03 0.02,0.02 c 0.1,0.08 0.21,0.15 0.33,0.2 0.26,0.11 0.54,0.1 0.71,0.09 0.39,-0.02 0.78,-0.05 1.16,-0.06 0.77,-0.03 1.51,-0.07 2.21,-0.08 0.7,-0.02 1.37,-0.03 1.98,-0.05 0.61,-0.03 1.17,-0.06 1.67,-0.09 0.25,-0.02 0.48,-0.03 0.7,-0.04 0.17,0 0.52,-0.04 0.75,-0.15 0.49,-0.27 0.66,-0.62 0.74,-0.94 0.02,-0.1 0.04,-0.19 0.04,-0.22"
       clip-path="url(#SVGID_00000147929494248088433640000003028076616205719955_-7-7)"
       id="path14732-9-08"
       transform="rotate(-27.872942,743.07319,574.85689)"
       style="fill:#000000;fill-opacity:1;stroke:none;stroke-opacity:1" /><path
       d="m 983.54,560.15 c 0,-0.04 0,-0.07 0,-0.09 0,-0.05 0,-0.08 0,-0.08 v -0.04 c 0,0 -0.03,-0.41 -0.07,-1.12 -0.01,-0.18 -0.02,-0.38 -0.04,-0.59 0,-0.05 -0.01,-0.11 -0.01,-0.17 l -0.01,-0.08 -0.02,-0.12 c -0.01,-0.08 -0.03,-0.17 -0.06,-0.25 -0.03,-0.08 -0.06,-0.17 -0.12,-0.26 -0.19,-0.31 -0.47,-0.55 -0.93,-0.66 -0.14,-0.03 -0.19,-0.02 -0.26,-0.03 h -0.1 -0.05 l -0.11,0.01 c -0.15,0.01 -0.3,0.02 -0.45,0.03 -0.61,0.05 -1.27,0.1 -1.97,0.15 -0.7,0.05 -1.44,0.13 -2.2,0.2 -0.76,0.08 -1.55,0.12 -2.35,0.19 l -0.6,0.04 -0.3,0.02 c -0.11,0.02 -0.26,0.03 -0.38,0.08 -0.25,0.09 -0.47,0.26 -0.61,0.49 -0.04,0.05 -0.07,0.12 -0.1,0.18 -0.03,0.06 -0.05,0.12 -0.07,0.2 -0.04,0.17 -0.04,0.25 -0.04,0.36 0.03,0.42 0.05,0.84 0.08,1.25 l 0.04,0.61 c 0,0.05 0,0.1 0.01,0.16 l 0.03,0.2 c 0.04,0.13 0.07,0.25 0.16,0.38 0.04,0.06 0.08,0.13 0.11,0.15 l 0.05,0.05 0.03,0.03 0.03,0.03 0.02,0.02 c 0.1,0.08 0.21,0.15 0.33,0.2 0.26,0.11 0.54,0.1 0.71,0.09 0.39,-0.02 0.78,-0.05 1.16,-0.06 0.77,-0.03 1.51,-0.07 2.21,-0.08 0.7,-0.02 1.37,-0.03 1.98,-0.05 0.61,-0.03 1.17,-0.06 1.67,-0.09 0.25,-0.02 0.48,-0.03 0.7,-0.04 0.17,0 0.52,-0.04 0.75,-0.15 0.49,-0.27 0.66,-0.62 0.74,-0.94 0.02,-0.1 0.04,-0.19 0.04,-0.22"
       clip-path="url(#SVGID_00000147929494248088433640000003028076616205719955_-7-7-6)"
       id="path14732-9-08-6"
       transform="rotate(167.68266,972.12515,519.0115)"
       style="fill:#000000;fill-opacity:1;stroke:none;stroke-opacity:1" /><path
       d="m 983.54,560.15 c 0,-0.04 0,-0.07 0,-0.09 0,-0.05 0,-0.08 0,-0.08 v -0.04 c 0,0 -0.03,-0.41 -0.07,-1.12 -0.01,-0.18 -0.02,-0.38 -0.04,-0.59 0,-0.05 -0.01,-0.11 -0.01,-0.17 l -0.01,-0.08 -0.02,-0.12 c -0.01,-0.08 -0.03,-0.17 -0.06,-0.25 -0.03,-0.08 -0.06,-0.17 -0.12,-0.26 -0.19,-0.31 -0.47,-0.55 -0.93,-0.66 -0.14,-0.03 -0.19,-0.02 -0.26,-0.03 h -0.1 -0.05 l -0.11,0.01 c -0.15,0.01 -0.3,0.02 -0.45,0.03 -0.61,0.05 -1.27,0.1 -1.97,0.15 -0.7,0.05 -1.44,0.13 -2.2,0.2 -0.76,0.08 -1.55,0.12 -2.35,0.19 l -0.6,0.04 -0.3,0.02 c -0.11,0.02 -0.26,0.03 -0.38,0.08 -0.25,0.09 -0.47,0.26 -0.61,0.49 -0.04,0.05 -0.07,0.12 -0.1,0.18 -0.03,0.06 -0.05,0.12 -0.07,0.2 -0.04,0.17 -0.04,0.25 -0.04,0.36 0.03,0.42 0.05,0.84 0.08,1.25 l 0.04,0.61 c 0,0.05 0,0.1 0.01,0.16 l 0.03,0.2 c 0.04,0.13 0.07,0.25 0.16,0.38 0.04,0.06 0.08,0.13 0.11,0.15 l 0.05,0.05 0.03,0.03 0.03,0.03 0.02,0.02 c 0.1,0.08 0.21,0.15 0.33,0.2 0.26,0.11 0.54,0.1 0.71,0.09 0.39,-0.02 0.78,-0.05 1.16,-0.06 0.77,-0.03 1.51,-0.07 2.21,-0.08 0.7,-0.02 1.37,-0.03 1.98,-0.05 0.61,-0.03 1.17,-0.06 1.67,-0.09 0.25,-0.02 0.48,-0.03 0.7,-0.04 0.17,0 0.52,-0.04 0.75,-0.15 0.49,-0.27 0.66,-0.62 0.74,-0.94 0.02,-0.1 0.04,-0.19 0.04,-0.22"
       clip-path="url(#SVGID_00000147929494248088433640000003028076616205719955_-7-9)"
       id="path14732-9-0"
       transform="rotate(-118.56373,943.5417,510.47159)"
       style="fill:#000000;fill-opacity:1;stroke:#000000;stroke-opacity:1" /><path
       d="m 983.54,560.15 c 0,-0.04 0,-0.07 0,-0.09 0,-0.05 0,-0.08 0,-0.08 v -0.04 c 0,0 -0.03,-0.41 -0.07,-1.12 -0.01,-0.18 -0.02,-0.38 -0.04,-0.59 0,-0.05 -0.01,-0.11 -0.01,-0.17 l -0.01,-0.08 -0.02,-0.12 c -0.01,-0.08 -0.03,-0.17 -0.06,-0.25 -0.03,-0.08 -0.06,-0.17 -0.12,-0.26 -0.19,-0.31 -0.47,-0.55 -0.93,-0.66 -0.14,-0.03 -0.19,-0.02 -0.26,-0.03 h -0.1 -0.05 l -0.11,0.01 c -0.15,0.01 -0.3,0.02 -0.45,0.03 -0.61,0.05 -1.27,0.1 -1.97,0.15 -0.7,0.05 -1.44,0.13 -2.2,0.2 -0.76,0.08 -1.55,0.12 -2.35,0.19 l -0.6,0.04 -0.3,0.02 c -0.11,0.02 -0.26,0.03 -0.38,0.08 -0.25,0.09 -0.47,0.26 -0.61,0.49 -0.04,0.05 -0.07,0.12 -0.1,0.18 -0.03,0.06 -0.05,0.12 -0.07,0.2 -0.04,0.17 -0.04,0.25 -0.04,0.36 0.03,0.42 0.05,0.84 0.08,1.25 l 0.04,0.61 c 0,0.05 0,0.1 0.01,0.16 l 0.03,0.2 c 0.04,0.13 0.07,0.25 0.16,0.38 0.04,0.06 0.08,0.13 0.11,0.15 l 0.05,0.05 0.03,0.03 0.03,0.03 0.02,0.02 c 0.1,0.08 0.21,0.15 0.33,0.2 0.26,0.11 0.54,0.1 0.71,0.09 0.39,-0.02 0.78,-0.05 1.16,-0.06 0.77,-0.03 1.51,-0.07 2.21,-0.08 0.7,-0.02 1.37,-0.03 1.98,-0.05 0.61,-0.03 1.17,-0.06 1.67,-0.09 0.25,-0.02 0.48,-0.03 0.7,-0.04 0.17,0 0.52,-0.04 0.75,-0.15 0.49,-0.27 0.66,-0.62 0.74,-0.94 0.02,-0.1 0.04,-0.19 0.04,-0.22"
       clip-path="url(#SVGID_00000147929494248088433640000003028076616205719955_-7-9-4)"
       id="path14732-9-0-6"
       transform="rotate(-118.56373,932.37667,529.53686)"
       style="fill:#000000;fill-opacity:1" /></g></g></g>

</svg>
