<?xml version="1.0" encoding="UTF-8" standalone="no"?>
<!-- Generator: Adobe Illustrator 26.0.3, SVG Export Plug-In . SVG Version: 6.00 Build 0)  -->

<svg
   version="1.1"
   id="Ebene_1"
   x="0px"
   y="0px"
   viewBox="0 0 163.29854 55.98696"
   xml:space="preserve"
   width="163.29854"
   height="55.986961"
   xmlns:xlink="http://www.w3.org/1999/xlink"
   xmlns="http://www.w3.org/2000/svg"
   xmlns:svg="http://www.w3.org/2000/svg"><defs
   id="defs14751"><clipPath
     id="SVGID_00000147929494248088433640000003028076616205719955_-7"><use
       xlink:href="#SVGID_1_"
       style="overflow:visible"
       id="use14719-7"
       x="0"
       y="0"
       width="100%"
       height="100%" /></clipPath><clipPath
     id="SVGID_00000147929494248088433640000003028076616205719955_-1"><use
       xlink:href="#SVGID_1_"
       style="overflow:visible"
       id="use14719-0"
       x="0"
       y="0"
       width="100%"
       height="100%" /></clipPath><clipPath
     id="SVGID_00000147929494248088433640000003028076616205719955_-7-9"><use
       xlink:href="#SVGID_1_"
       style="overflow:visible"
       id="use14719-7-0"
       x="0"
       y="0"
       width="100%"
       height="100%" /></clipPath><clipPath
     id="SVGID_00000147929494248088433640000003028076616205719955_-1-4"><use
       xlink:href="#SVGID_1_"
       style="overflow:visible"
       id="use14719-0-9"
       x="0"
       y="0"
       width="100%"
       height="100%" /></clipPath><clipPath
     id="SVGID_00000147929494248088433640000003028076616205719955_-7-7"><use
       xlink:href="#SVGID_1_"
       style="overflow:visible"
       id="use14719-7-5"
       x="0"
       y="0"
       width="100%"
       height="100%" /></clipPath><clipPath
     id="SVGID_00000147929494248088433640000003028076616205719955_-1-1"><use
       xlink:href="#SVGID_1_"
       style="overflow:visible"
       id="use14719-0-6"
       x="0"
       y="0"
       width="100%"
       height="100%" /></clipPath><clipPath
     id="SVGID_00000147929494248088433640000003028076616205719955_-7-9-4"><use
       xlink:href="#SVGID_1_"
       style="overflow:visible"
       id="use14719-7-0-4"
       x="0"
       y="0"
       width="100%"
       height="100%" /></clipPath><clipPath
     id="SVGID_00000147929494248088433640000003028076616205719955_-4"><use
       xlink:href="#SVGID_1_"
       style="overflow:visible"
       id="use14719-75"
       x="0"
       y="0"
       width="100%"
       height="100%" /></clipPath><clipPath
     id="SVGID_00000147929494248088433640000003028076616205719955_-7-7-5"><use
       xlink:href="#SVGID_1_"
       style="overflow:visible"
       id="use14719-7-5-2"
       x="0"
       y="0"
       width="100%"
       height="100%" /></clipPath></defs>
<style
   type="text/css"
   id="style14714">
	.st0{clip-path:url(#SVGID_00000065775500933186308070000015705095344002610617_);fill:#0BBBEF;}
	.st1{clip-path:url(#SVGID_00000065775500933186308070000015705095344002610617_);}
	.st2{fill:#FFFFFF;}
	.st3{font-family:'Arial-Black';}
	.st4{font-size:18px;}
</style>
<g
   id="g14734"
   transform="translate(-872.72455,-511.22429)">
	<defs
   id="defs14717">
		<rect
   id="SVGID_1_"
   x="855.76001"
   y="511.34"
   width="208.52"
   height="57.360001" />
	</defs>
	<clipPath
   id="SVGID_00000147929494248088433640000003028076616205719955_">
		<use
   xlink:href="#SVGID_1_"
   style="overflow:visible"
   id="use14719"
   x="0"
   y="0"
   width="100%"
   height="100%" />
	</clipPath>
	<path
   style="fill:#dc2f34;fill-opacity:1"
   d="m 908.33,548.86 c -0.45,0.2 -1.05,-0.21 -1.27,0.11 0.28,-0.2 1.08,0.3 1.27,-0.11 m 88.21,1.03 c 0.82,0.02 1.64,-0.02 2.84,0.04 -0.34,-0.38 -1.59,-0.13 -2.3,-0.26 0.14,0.35 -0.54,-0.01 -0.54,0.22 m -134.07,13.59 c -0.23,0.17 -1.24,0.5 -1.48,0.1 0.13,-0.35 1.03,-0.03 1.48,-0.1 m -0.73,-1.65 c 0.03,-0.2 -0.22,-0.21 -0.29,-0.34 -0.14,0.02 -0.1,0.2 -0.13,0.32 -0.23,-0.04 -0.36,-0.16 -0.4,-0.34 0.18,-0.02 0.81,-0.1 0.54,-0.22 0.37,-0.11 0.87,0.47 1.46,0.14 0.02,0.35 0.71,0.23 0.8,0.52 -0.39,0.02 -0.79,-0.01 -0.87,0.45 -0.38,0.11 -0.04,-0.28 -0.3,-0.26 -0.28,-0.04 0.07,0.46 -0.34,0.31 0.72,0.29 1.76,-0.3 2.33,-0.15 -0.38,0.16 -0.43,0.6 -0.59,0.95 -0.95,-0.07 -0.82,-0.17 -1.68,-0.07 0.18,-0.41 -0.29,-0.36 -0.16,-0.74 -0.42,0.25 -0.91,0.37 -1.19,0.52 -0.09,-0.41 -0.47,-0.42 -0.23,-1.15 0.07,0 0.14,0.01 0.21,0.01 0.39,0.29 0.29,0.02 0.84,0.05 m -0.14,-5.44 c 0.22,0.36 -0.04,1.05 0,1.54 0.38,-0.13 0.69,-0.18 0.86,-0.29 -0.01,0.11 -0.02,0.22 -0.02,0.32 -0.14,-0.01 -0.28,-0.01 -0.42,-0.02 0.1,0.35 -0.19,0.35 -0.25,0.56 0.02,0.19 0.29,-0.08 0.33,-0.15 0.26,0.02 0.01,0.28 -0.02,0.33 0.56,-0.17 0.59,0.33 1.15,0.13 -0.03,0.28 0.42,0.22 0.39,0.5 -0.42,-0.02 -0.84,-0.04 -1.26,-0.05 0.13,0.22 0.43,0.32 0.82,0.36 -0.02,0.22 -0.03,0.43 -0.04,0.65 -0.2,-0.04 -0.64,0.08 -0.51,-0.18 -0.18,0.44 -1.11,0.24 -1.21,0.76 -0.49,0.09 -0.33,-0.28 -0.83,-0.2 -0.09,-0.25 0.24,-0.13 0.43,-0.14 0.01,-0.08 0.01,-0.16 0.02,-0.24 0,-0.18 -0.44,-0.05 -0.62,-0.11 0.05,-1.43 -0.09,-2.26 0.47,-3.71 0.28,0.28 0.38,-0.11 0.71,-0.06 m 175.89,6.66 c -0.32,0.24 -0.91,-0.04 -1.58,0.02 -0.06,-0.18 1.14,0 1.58,-0.02 M 860.14,551.7 c 1.69,0.11 3.4,0.27 5.65,0.4 -1.49,0.21 -4.42,0.08 -5.87,-0.25 0.18,0.04 0.21,-0.05 0.22,-0.15 m -0.42,-0.02 c 0.04,0.32 -0.58,0.07 -0.85,0.13 -0.04,-0.32 0.59,-0.07 0.85,-0.13 m -0.65,-1.16 c 5.12,0.23 10.18,0.42 15.74,0.66 -4.27,-0.08 -10.06,0.34 -14.61,-0.29 -0.36,-0.05 -0.79,-0.17 -1.13,-0.37 m 33.5,1 c -0.07,0.08 -0.25,0.07 -0.23,0.23 -0.25,0.02 -0.4,-0.03 -0.52,-0.1 0.14,-0.14 0.55,-0.04 0.75,-0.13 m 36.13,0.96 c -5.48,0.09 -11.62,-0.06 -17.15,-0.07 -6.75,-0.02 -12.49,-0.48 -18.57,-0.78 3.36,-0.06 6.4,0.03 9.26,0.06 1.9,0.02 6.64,0.64 10.07,0.42 0.59,-0.04 1.51,-0.29 2.2,0.09 1.19,-0.36 3.76,0.23 4.64,-0.13 -0.06,0.07 -0.3,0.11 -0.12,0.16 0.33,0.11 0.1,-0.26 0.43,-0.15 3.5,0.35 5.91,-0.11 9.24,0.4 m -70.44,-3.94 c -0.02,0.3 -0.48,0.21 -0.86,0.21 0.17,-0.18 0.4,-0.29 0.86,-0.21 m 174.08,5.54 c -0.62,0.41 -2.04,0 -3.16,0.03 -0.91,0.03 -3.29,0.28 -4.72,-0.2 0.12,-0.01 0.07,-0.08 0.01,-0.08 1.75,-0.16 5.07,0.05 7.87,0.25 m -8.79,-0.78 c -0.25,0.21 -0.86,0.11 -1.38,0.1 -0.01,-0.1 0.92,-0.12 1.38,-0.1 m 4.93,0.21 c 0.29,-0.17 1.01,0.02 1.48,-0.02 -0.3,0.17 -1.02,-0.02 -1.48,0.02 m -84.8,-4.62 c -2.45,-0.1 -4.9,-0.21 -7.34,-0.31 1.41,-0.39 4.88,0.34 6.84,-0.04 0,0.24 0.57,0.07 0.5,0.35 m 10.53,-0.05 c -2.48,0.56 -6.36,-0.09 -9.47,-0.07 3.1,-0.17 6.07,-0.01 9.47,0.07 m 6.42,-0.05 c -0.16,0.12 -0.42,0.15 -0.75,0.13 -0.06,-0.31 0.51,-0.08 0.75,-0.13 m 1.05,0.04 c 0.36,0 1.13,-0.23 1.68,-0.01 0.34,-0.05 0.79,0.13 0.2,0.09 -0.65,-0.07 -1.14,-0.01 -1.58,0.1 -0.04,-0.1 -0.12,-0.17 -0.3,-0.18 m 45.95,0.48 c -0.79,0.12 -2.48,0.21 -3.8,0.17 1.21,-0.12 2.49,-0.16 3.8,-0.17 m 0.95,-0.05 c 0.54,-0.17 2.47,-0.01 1.26,0.05 -0.36,0.03 -0.77,-0.05 -1.26,-0.05 m 2.12,-0.15 c 0.28,0.01 0.56,0.02 0.84,0.04 -0.13,0.2 -0.81,-0.07 -0.96,0.12 -0.19,-0.08 0.12,-0.05 0.12,-0.16 m -90.07,-4.6 c 0.04,0.32 -0.58,0.07 -0.85,0.13 -0.04,-0.32 0.58,-0.07 0.85,-0.13 m 4.3,0.18 c -1.35,-0.05 -2.41,0.15 -4.1,-0.01 1.06,-0.15 3.27,-0.21 4.1,0.01 m 4.96,-0.11 c -0.85,0.47 -2.64,0.13 -4.01,0.16 1.24,-0.41 3.05,0.14 4.01,-0.16 m 16.92,0.3 c -0.26,0.35 -1.32,0.01 -1.9,0.08 0.43,-0.33 1.29,0.16 1.9,-0.08 m -2.21,-0.01 c 0.14,-0.11 0.04,-0.01 0,0.08 -4.8,-0.28 -9.44,0.17 -14.39,-0.36 4.57,0.05 9.63,0.12 14.39,0.28 m 5.67,0.08 c -0.44,0.2 -2.22,0.13 -2.42,-0.02 0.66,0.01 1.48,-0.03 2.42,0.02 m -43.01,-1.81 c 0.43,-0.17 1.29,0.03 1.89,0 -0.43,0.17 -1.29,-0.03 -1.89,0 m -5.66,-0.32 c -0.06,0.15 -0.31,0.13 -0.24,0.4 -0.32,-0.12 -0.3,0.01 -0.73,-0.03 -0.1,-0.4 -0.5,-0.42 0.97,-0.37 m 3.89,0.08 c -0.08,0.25 -0.62,0.1 -0.86,0.21 0.11,-0.22 0.54,-0.16 0.86,-0.21 m -1.79,0.01 c 0.02,0.22 -0.58,-0.1 -0.44,0.23 -0.25,-0.01 -0.3,-0.15 -0.62,-0.11 -0.06,0.17 0.14,0.16 0.3,0.17 -0.26,0.18 -0.94,-0.01 -1.37,0.02 0.52,-0.27 1.48,-0.41 2.13,-0.31 m -3.99,-0.17 c 0.57,0.1 -0.23,0.02 -0.22,0.15 -0.84,0.09 -1.35,-0.04 -2.21,-0.01 0.09,0.21 -0.5,0.07 -0.65,0.3 -8.36,-0.4 -16.57,-0.69 -24.47,-0.7 -0.07,-0.35 0.69,0.02 0.65,-0.3 -3.61,0.53 -8.73,-0.35 -13.02,-0.39 1.97,-0.31 4.18,0.14 6.1,0.09 4.96,-0.11 9.9,0.11 15.55,0.33 -0.03,0.09 -0.21,0.05 -0.22,0.15 0.95,0.08 1.62,0.05 2.73,0.11 -1.31,-0.07 0.19,-0.28 0.55,-0.3 2.69,-0.13 8.34,0.66 10.71,0.29 0.63,0.46 1.8,-0.04 2.3,0.26 -0.79,-0.33 1.55,0.28 2.1,0.01 0.03,0.01 0.07,0.01 0.1,0.01 m 21.62,0.83 c -0.01,0.05 -0.01,0.11 -0.01,0.16 -1.79,-0.04 -4.23,0.25 -5.88,-0.25 0.52,0.02 1.05,0.05 1.57,0.07 -0.55,-0.48 -1.34,0.01 -2.09,-0.25 0.44,0.15 3.05,-0.16 4.73,0.04 0.65,0.07 1.19,0.36 1.68,0.23 m -6.52,-0.11 c -0.68,0.39 -1.99,0.23 -3.17,0.19 -0.28,0.01 -0.26,-0.18 -0.29,-0.34 -0.72,-0.02 -1.4,-0.05 -1.99,-0.16 0.51,-0.23 2.34,0.15 2.42,-0.06 1.45,0 1.74,0.21 3.03,0.37 m 24.71,0.31 c -0.04,0.25 -1.9,0.29 -2.44,0.3 -3.73,0.11 -7.8,-0.27 -11.97,-0.34 -0.33,-0.11 -0.1,0.26 -0.43,0.14 -1.05,-0.04 -2.1,-0.09 -3.15,-0.13 -0.06,-0.31 0.5,-0.08 0.75,-0.13 -0.08,-0.12 -0.25,-0.19 -0.51,-0.18 3.58,-0.23 7.25,-0.04 11.14,0.14 1.31,0.37 4.37,0.1 6.61,0.2 m -2.76,-1.09 c -4.55,0.17 -12.44,-0.18 -17.57,-0.01 -6.76,-0.27 -15,-0.31 -21.74,-0.59 -5.88,-0.25 -12.29,-0.67 -17.64,-0.58 -3.05,0.05 -5.74,-0.16 -8.93,-0.21 -0.59,-0.01 -1.11,0.09 -1.69,0.09 -0.5,0 -0.98,-0.21 -1.46,-0.22 -2.46,-0.06 -4.93,0.18 -7.12,-0.46 1.42,0.01 3.97,0.27 5.57,0.15 -1.03,-0.34 -3.12,0.05 -3.97,-0.41 2.43,-0.57 6.13,0.15 9.46,0.07 4.38,-0.1 8.25,0.17 12.94,0.06 4.72,0.23 10.79,0.44 16.16,0.68 -1.8,0.31 -5,-0.22 -6.63,-0.03 3.16,0.46 6.07,0.1 9.32,0.64 2.05,0.01 6.12,-0.1 9.35,0.23 2.24,0.23 5.84,0.29 8.72,0.21 1.54,-0.05 3.1,0.21 4.62,0.2 3.18,-0.03 6.28,-0.12 9.06,-0.11 0.68,-0.02 1.51,0.04 1.55,0.29 m 103.49,-24.61 c -0.33,-0.08 0.19,-0.1 0.32,-0.07 -0.06,-0.09 -0.23,-0.09 -0.19,-0.25 0.29,0 0.2,0.14 0.42,0.02 0.25,-0.02 0.13,-0.35 0.34,-0.39 -0.01,-0.11 0.03,-0.59 0.13,-0.32 0.08,0.61 -0.36,0.77 -0.7,1.02 -0.11,0 -0.21,0 -0.32,-0.01 m 0.42,-1.44 c -0.16,0.04 -1.02,0.21 -1.19,0.52 0.2,-0.34 0.48,-0.62 1.19,-0.52 m 4.26,45.44 c -0.14,-0.16 -0.41,-0.23 -0.39,-0.5 -1.24,-0.08 -2.96,-0.01 -3.45,-0.39 0.65,-0.16 1.72,0.04 2.52,0.02 0.37,-0.37 1.58,-0.02 1.82,-0.49 -0.56,0.05 -2.21,-0.31 -3,-0.78 0.89,-0.23 2.21,0.49 3.05,0.05 0.12,-0.39 -0.27,-0.43 -0.15,-0.82 -1.33,-0.68 -2.65,-0.09 -4.17,-0.5 0.44,-0.11 0.93,-0.25 1.71,-0.33 0.22,-0.41 1.98,-0.6 2.7,-0.94 0.12,-1.03 -0.14,-1.8 -0.79,-2.3 -3.68,-0.79 -9.11,-0.36 -12.34,-1.09 1.48,0.17 2.73,0.17 3.99,0.17 1.05,0 2.77,0.16 3.67,0.23 0.34,0.04 0.24,-0.3 0.55,-0.3 1.76,0.19 3.05,0.29 4.36,0.83 0.04,-0.25 0.43,-0.2 0.35,-0.55 -0.48,-0.73 -2.09,-0.05 -2.59,-0.6 0.46,-0.25 1.15,0.19 1.58,-0.02 0.69,-1.1 0.38,-2.38 0.37,-3.71 -0.74,-0.07 -1.33,0.32 -1.89,-0.08 0.33,-0.07 0.67,0.05 0.96,-0.2 0.02,-0.3 0.04,-0.59 0.06,-0.89 -2.21,-0.88 -6.48,-0.4 -8.88,-0.94 2.73,0.16 5.92,0.22 8.59,0.52 0.67,-0.42 2.12,-1.27 0.98,-1.99 -0.57,-0.07 -1.24,0.31 -1.57,-0.07 0.21,-0.33 0.81,-0.33 1.29,-0.43 0.47,-1.4 -1.15,-1.75 -2.7,-1.98 0.03,-0.13 1.05,0.26 0.96,-0.2 -0.04,-0.41 -1.16,-0.07 -1.12,-0.53 1.02,-0.04 1.52,0.28 2.29,0.42 0.44,-0.21 0.22,-0.45 0.28,-0.96 0.32,-0.27 0.72,-0.47 0.6,-1.11 -0.43,-0.06 -0.85,0.52 -1.16,0.03 -0.07,-0.4 0.57,-0.19 0.46,-0.63 -0.05,-2.45 -0.03,-4.45 -0.01,-7.22 -0.02,-0.32 -0.57,0.1 -0.5,-0.35 0.25,-0.44 -0.14,-0.51 0.39,-1.04 0.03,-0.75 -0.62,-1.21 -0.6,-1.97 0.02,-0.74 0.32,-1.47 0.16,-2.18 -0.31,-0.12 -0.54,-0.29 -1.03,-0.29 0.23,-0.2 0.4,-0.46 0.38,-0.88 0.38,0.07 0.56,-0.03 0.75,-0.13 0.14,-0.7 -0.2,-1.35 -0.73,-1.57 -0.05,-0.71 0.5,-1.4 -0.19,-1.71 0.65,-0.55 0.57,-2.04 0.08,-2.67 0.65,-0.48 0.38,-1.27 0.34,-1.85 -0.18,-0.23 -0.82,-0.15 -0.69,-0.6 1.44,-0.55 0.24,-2.39 0.3,-2.75 0.05,-0.28 0.38,-0.45 0.37,-0.71 -0.02,-0.4 -1.09,-1.63 -1.54,-2.01 -11.36,-1.27 -25.68,-1.6 -36.96,-1.07 -2.62,0.27 -5.58,0.24 -8.44,0.3 -7.63,0.25 -15.2,0.54 -22.99,0.65 -0.59,0.29 -1.84,0.02 -2.74,0.05 -0.33,-0.11 -0.1,0.26 -0.43,0.14 -1.16,-0.08 -2.12,0.01 -2.96,0.2 -2.04,-0.13 -4.2,-0.15 -5.78,-0.08 -3.08,0.13 -6.34,-0.17 -9.67,-0.08 -2.6,0.07 -6,-0.27 -8.93,-0.21 -4.16,0.08 -7.44,0.02 -11.35,-0.15 -0.58,0.26 -1.66,-0.1 -2.54,0.22 -2.29,-0.2 -4,0.11 -6.31,-0.1 -1.31,0.3 -3.41,-0.07 -5.05,-0.05 -14.75,0.13 -31.02,-1.05 -46.01,-1.12 -2.98,0.15 -7.34,-0.05 -10.28,-0.43 -0.57,0.03 -0.95,0.22 -1.49,0.26 0.13,0.71 -0.62,0.66 -1.01,0.93 -0.1,0.68 -0.14,1.33 0.53,1.48 -0.6,0.37 -0.26,1.55 -0.67,2.08 -0.4,-0.06 -0.56,0.09 -0.65,0.3 0.23,0.07 0.36,-0.36 0.53,-0.06 -0.36,0.09 -0.47,0.4 -0.78,0.54 0.42,0.3 0.07,0.81 0.11,1.46 0.26,0.12 0.28,-0.36 0.42,-0.06 0.34,0.29 -0.27,0.14 -0.24,0.4 0.61,0.23 0.58,1.11 0.63,1.49 -0.41,-0.09 -0.28,0.27 -0.75,0.13 0.22,1.02 -0.19,1.03 -0.67,2 1.68,0.97 -0.2,2.35 0.45,3.99 -0.34,-0.06 -0.53,0 -0.64,0.14 -0.15,0.52 0.44,0.52 0.35,0.99 0.3,-0.09 0.42,-0.24 0.52,0.1 -1.1,-0.03 -0.76,1.17 -1.17,1.73 0.26,0.26 0.83,0.27 0.7,0.6 0,-0.14 0.1,-0.2 0.23,-0.23 -0.15,0.3 -0.1,0.64 0.03,1.05 -0.22,0.24 -0.99,0 -1.18,0.28 0.03,0.52 1.06,0.34 1.1,0.86 -0.3,0.4 -0.77,0.66 -0.63,1.43 0.35,-0.12 0.35,-0.19 0.52,0.1 -0.14,0.17 -0.71,-0.04 -0.75,0.21 0.33,0.46 -0.08,0.56 0.35,0.99 -0.22,0.05 -0.76,0.71 -0.19,1.21 -0.6,-0.06 -0.75,0.63 -0.59,0.95 0.41,0.28 1.17,0.47 0.99,0.93 -1.03,-0.17 -1.14,0.48 -1.12,1.01 0.75,0.29 0.84,0.59 1.29,1.03 0.03,0.46 -0.57,0.37 -0.68,0.7 0.15,0.26 0.57,0.32 0.8,0.52 -0.28,0.5 -0.6,0.59 -0.61,1.19 0.11,0.13 0.33,0.18 0.29,0.42 0.7,-0.03 0.5,0.15 0.72,0.19 6.88,0.42 13.72,0.39 19.63,0.66 0.33,0.11 0.1,-0.26 0.43,-0.14 0.02,0.36 0.85,0.06 1.26,0.05 4.42,-0.1 10.55,0.36 14.16,0.6 1.42,0.09 3.26,0.18 4.72,0.2 4.94,0.05 10.96,0.34 14.71,0.29 0.2,0.04 -0.19,0.22 0.3,0.18 1.65,-0.23 4.72,0 6.2,0.18 -12.03,-0.13 -24.8,-0.69 -37.7,-1.1 -7.73,-0.24 -16.54,-0.09 -24.36,-0.78 0.01,0.42 -0.43,0.7 -0.71,1.11 0.27,0.02 0.54,0.04 0.51,0.26 -0.36,0.45 -0.23,0.87 -1,0.77 -0.2,0.47 0.89,0.05 0.81,0.44 -0.14,-0.01 -0.28,-0.01 -0.42,-0.02 0.36,0.18 0.63,0.44 0.68,0.84 0.68,0.05 1.36,0.09 1.79,-0.09 0.35,-0.09 0.06,0.27 0.41,0.18 2.87,-0.46 8.26,0.7 11.15,-0.02 -3.95,-0.33 -8.84,0.01 -11.93,-0.91 0.21,-0.28 0.75,-0.48 1.07,-0.2 0.06,-0.26 0.59,-0.12 0.76,-0.29 2.02,0.17 3.23,0.26 4.93,0.29 3.34,0.06 6.91,0.04 9.03,0.3 1.34,-0.12 2.2,-0.16 3.88,0.16 0.94,-0.22 1.74,0.02 2.63,0.03 -0.41,0.09 -0.65,-0.12 -0.86,0.21 1.42,-0.04 3.32,0.34 4.42,0.02 -0.92,-0.13 -2.37,0.1 -2.93,-0.28 3.85,0.11 7.8,-0.01 11.86,0.42 -0.39,0.34 -1,0.06 -1.29,0.35 2.37,0.17 3.11,0.09 4.92,0.37 2.76,-0.25 6.36,0.21 9.45,0.24 0.01,0.14 -0.13,0.4 0.19,0.33 3.36,0.64 7.96,0.49 11.75,0.49 0.44,-0.02 -0.16,0.24 0.41,0.18 1.88,-0.08 3.6,0.2 5.79,-0.08 0.39,0.2 1.39,0.34 1.79,0.08 1.7,-0.07 4.18,0.39 4.73,0.04 0.65,0.18 1.63,0.35 2.5,0.43 0.81,0.08 1.62,-0.17 1.99,0.16 -1.35,0.04 -2.38,0.3 -3.26,-0.06 -2.32,0.19 -5.86,-0.04 -8.53,0.13 0.15,0.45 -0.47,0.23 -0.56,0.46 -2.57,-0.25 -4.76,0.33 -7.04,-0.13 0.09,0.25 -0.24,0.13 -0.43,0.14 0.78,0.39 3.12,0.34 4.2,0.18 4.23,0.47 12.36,0.21 17.01,0.55 1.74,-0.39 4.79,0.34 6.53,-0.05 -0.29,0.22 0.5,0.17 0.61,0.35 1.51,0.06 3.01,0.13 4.51,0.19 2.03,-0.28 4.89,0.14 7.25,0.14 2.69,-0.26 6.44,0 8.63,0.04 -0.31,-0.09 -1.08,0.13 -1.04,-0.21 2.48,0.18 4.73,-0.17 7.07,-0.19 0.69,-0.01 1.98,0.17 1.59,-0.1 2.81,0.11 6.01,-0.2 8.75,-0.2 -0.12,-0.02 -0.3,0 -0.31,-0.09 3.16,0.04 4.5,-0.27 7.37,-0.1 -0.62,0.01 -1.42,-0.13 -1.7,0.17 1.43,0 2.81,-0.04 4.21,-0.07 -0.19,-0.03 -0.53,0.06 -0.41,-0.18 0.85,0.19 1.53,0.04 2.51,0.19 0.6,-0.39 1.69,0.17 2.03,-0.4 0.3,0.28 1.09,0.15 1.88,0.24 0.37,0.01 -0.21,-0.28 0.12,-0.24 0.02,0.28 0.82,0.06 1.47,0.06 -0.11,0 -0.26,-0.05 -0.1,-0.09 1.18,0.45 3.17,-0.13 4.51,0.19 -0.55,0.07 -1.31,-0.04 -1.79,0.09 4.68,0.33 9.92,-0.47 14.65,-0.28 -10.7,0.56 -21.22,0.81 -31.55,1.27 -7.82,0.35 -15.72,0.58 -23.62,0.71 -11.59,0.19 -23.14,-0.77 -35.11,-0.5 -1.74,0.04 -3.42,-0.19 -5.14,-0.22 -5.7,0.27 -13.68,-0.42 -19.54,-0.5 -0.95,-0.29 -2.51,-0.22 -3.98,-0.33 -0.29,-0.02 -0.26,0.23 -0.54,0.22 -3.52,-0.48 -7.51,-0.48 -10.9,-0.62 -1.96,-0.08 -4.42,-0.32 -6.41,-0.19 -1.59,0.1 -3.92,-0.13 -5.68,-0.08 -3.79,0.12 -7.42,-0.07 -10.51,-0.12 -0.99,-0.32 -2.42,-0.33 -3.54,-0.55 0.09,-0.18 0.59,-0.01 0.84,-0.05 0.01,-0.38 0.43,-0.51 0.37,-0.71 5.97,0.47 13.28,0.52 18.91,0.39 0.5,0.39 1.74,0.11 2.31,0.02 -5.85,-0.63 -16,-0.24 -21.2,-0.81 -0.09,-0.43 -1,-0.29 -1.44,-0.47 0.02,-0.13 0.27,-0.05 0.23,-0.23 -0.16,-0.01 -0.36,0 -0.3,-0.17 -0.65,-0.13 -0.78,0.19 -1.08,0.36 0.29,0.05 0.62,-0.12 0.82,0.28 -0.62,-0.07 -1.08,-0.01 -1.38,0.18 0.41,0.5 0.16,1.03 0.64,1.41 -0.35,0.3 -1.08,0.27 -1.11,0.84 0.3,0.18 0.61,0.35 0.91,0.53 -0.41,1.14 -0.66,2.82 -0.62,4.27 0.02,0.49 0.28,0.97 0.32,1.47 0.11,1.64 -0.4,3.27 -0.13,4.78 -0.03,0.32 -0.45,0.3 -0.47,0.63 0.68,0.73 -0.44,2.26 0.74,2.87 1.6,0.27 2.76,-0.13 3.69,-0.17 0.99,-0.05 2.22,0.23 2.94,0.12 0.01,-0.08 0.01,-0.16 0.02,-0.24 -0.04,-0.26 -0.62,0.38 -0.62,-0.11 0.3,-0.22 0.96,-0.39 1.27,-0.11 -0.01,0.28 -0.45,0.19 -0.45,0.47 2.4,0.29 5.6,0.54 7.55,0.32 2.25,-0.26 5.58,0.5 7.44,0.47 7.07,-0.08 14.29,0.85 20.99,0.72 2.93,0.46 5.15,0.25 8.7,0.53 0.3,0.02 0.22,-0.27 0.64,-0.14 0.48,-0.1 0.31,0.25 0.72,0.19 3.45,-0.35 7.01,0.4 10.61,0.28 3.39,-0.11 6.71,0.37 10.08,0.26 2.37,-0.08 4.8,0.21 7.15,0.14 5.4,-0.17 10.67,0.66 15.75,0.5 5.53,-0.18 10.67,0.18 15.57,0.01 4.05,-0.28 8.44,-0.16 12.24,-0.46 -0.01,0.11 -0.19,0.07 -0.22,0.15 2.98,-0.22 5.52,-0.28 8.65,-0.37 -0.15,-0.05 -0.55,0.07 -0.52,-0.1 11.26,-0.02 20.96,-1.17 32.18,-1.24 0.92,-0.15 2.31,-0.13 2.96,-0.2 1.79,-0.2 4.63,0.24 6.72,0.12 1.58,-0.09 2.73,-0.71 3.47,-0.02 4.29,-0.24 8.09,0.71 11.62,0.81 -0.54,-0.63 -2.73,-0.23 -3.96,-0.57 1.24,-0.5 2.9,-0.02 3.93,-0.56 -2.05,-1.66 -4.83,-1.04 -8.62,-1.58 2.47,-0.41 5.28,0.23 7.98,0.25 0.2,-0.26 0.63,-0.32 0.58,-0.79 -0.3,-0.37 -2.01,-0.48 -1.01,-0.66 M 904.52,549.19 c 0.43,-0.15 1.17,-0.02 1.49,-0.26 -0.56,-0.02 -1.12,-0.05 -1.68,-0.07 -0.07,0.33 0.33,-0.1 0.19,0.33 m -1.45,-0.39 c -0.24,-0.01 -0.49,-0.02 -0.73,-0.03 -0.08,0.4 0.71,0.28 0.73,0.03 m 54.56,2.3 c 0.35,0.02 0.7,0.03 1.05,0.04 0.05,-0.29 -1.05,-0.26 -1.05,-0.04 m -43.86,-1.85 c 0.28,0.01 0.56,0.02 0.84,0.03 0.09,-0.3 -0.91,-0.41 -0.84,-0.03 m 46.39,1.71 c -0.07,0 -0.12,0.01 -0.11,0.08 1.05,0.01 2.29,0.2 3.05,-0.03 -0.96,-0.01 -2.13,-0.19 -2.94,-0.05 m -42.35,-2.19 c 0.62,0.02 1.33,0.11 1.69,-0.09 -0.57,0.03 -1.43,-0.19 -1.69,0.09 m -45.3,-2.23 c 0.52,-0.07 1.5,0.26 1.69,-0.09 -0.52,0.07 -1.5,-0.26 -1.69,0.09 m 111.8,3.73 c 0.32,-0.04 0.9,0.14 1.06,-0.04 -0.33,-0.01 -0.92,-0.28 -1.06,0.04 m 2.21,-0.07 c -0.06,0 -0.12,0.01 -0.11,0.08 0.8,-0.03 0.98,-0.11 0.12,-0.24 0,0.05 0,0.11 -0.01,0.16 m -101.34,-4.26 c 1.66,0.34 4.8,0.47 6.5,0.27 -2.25,-0.35 -4.13,-0.21 -6.5,-0.27 m 106.3,4.06 c -0.62,0.12 1.36,0.24 1.48,-0.02 -0.8,-0.05 -1.24,-0.02 -1.48,0.02 m -135.15,-6.89 c -0.17,-0.01 -0.35,-0.01 -0.52,-0.02 -0.18,0.24 0.67,0.27 0.52,0.02 m 10.49,-2.48 c 0.12,-0.29 -0.4,-0.13 -0.62,-0.19 -0.12,0.29 0.41,0.13 0.62,0.19 m -1.46,-0.15 c -0.28,-0.2 -0.52,0.06 -0.83,-0.12 -0.13,0.28 0.77,0.23 0.83,0.12 m 23.32,0.58 c 0.77,0.03 1.54,0.06 2.31,0.1 -0.42,-0.36 -2.1,-0.23 -2.31,-0.1"
   clip-path="url(#SVGID_00000147929494248088433640000003028076616205719955_)"
   id="path14722"
   transform="matrix(0.85831605,0,0,1,138.19875,-0.12571458)" />
	
	
	
	
	<g
   id="g3321"
   transform="matrix(0.74829221,0,0,0.74829221,182.83254,190.60536)"><path
     d="m 1032.13,556.35 -0.09,0.14 -0.19,0.27 c -0.13,0.18 -0.26,0.37 -0.39,0.55 -0.52,0.73 -1.04,1.49 -1.57,2.27 -0.53,0.78 -0.98,1.62 -1.53,2.41 -0.52,0.81 -1.08,1.61 -1.65,2.41 l -0.21,0.3 -0.11,0.15 -0.11,0.19 c -0.13,0.27 -0.13,0.59 -0.03,0.87 0.03,0.07 0.06,0.14 0.1,0.2 0.04,0.06 0.09,0.14 0.14,0.19 0.05,0.05 0.07,0.08 0.15,0.14 l 0.14,0.12 0.58,0.47 c 0.39,0.32 0.77,0.63 1.16,0.95 0.2,0.16 0.38,0.31 0.59,0.47 0.13,0.1 0.28,0.16 0.44,0.21 0.09,0.02 0.18,0.03 0.27,0.03 l 0.19,-0.01 c 0,0 0.08,-0.01 0.06,-0.01 l 0.03,-0.01 0.06,-0.02 0.12,-0.03 c 0.08,-0.03 0.15,-0.07 0.22,-0.11 0.07,-0.04 0.15,-0.11 0.21,-0.16 0.07,-0.06 0.09,-0.1 0.13,-0.15 l 0.05,-0.06 0.03,-0.04 0.05,-0.08 0.1,-0.16 0.2,-0.31 c 0.28,-0.41 0.54,-0.84 0.8,-1.26 0.52,-0.85 1.07,-1.67 1.66,-2.46 0.59,-0.79 1.17,-1.57 1.73,-2.36 0.55,-0.79 1.08,-1.58 1.6,-2.36 0.52,-0.78 1.03,-1.54 1.54,-2.29 0.12,-0.2 0.25,-0.33 0.39,-0.66 0.11,-0.3 0.11,-0.64 0.01,-0.94 -0.02,-0.07 -0.07,-0.16 -0.11,-0.24 -0.05,-0.08 -0.07,-0.1 -0.1,-0.15 l -0.05,-0.06 -0.03,-0.03 -0.05,-0.06 -0.11,-0.12 c -0.14,-0.17 -0.28,-0.33 -0.42,-0.49 -1.12,-1.3 -2.17,-2.54 -3.15,-3.68 -0.96,-1.15 -1.95,-2.11 -2.78,-3 -0.84,-0.88 -1.51,-1.71 -2.06,-2.38 -0.28,-0.34 -0.53,-0.64 -0.75,-0.89 -0.05,-0.06 -0.14,-0.14 -0.21,-0.21 -0.08,-0.07 -0.17,-0.11 -0.25,-0.16 -0.17,-0.08 -0.34,-0.12 -0.49,-0.12 -0.15,-0.01 -0.29,0.02 -0.4,0.05 -0.11,0.03 -0.23,0.09 -0.29,0.13 -0.1,0.07 -0.15,0.1 -0.15,0.1 -0.01,0.01 -0.02,0.01 -0.02,0.02 v 0 c 0,0 -0.77,0.64 -2.08,1.79 -0.17,0.15 -0.39,0.42 -0.44,0.73 -0.06,0.27 -0.01,0.62 0.18,0.9 0.18,0.25 0.36,0.42 0.55,0.64 0.19,0.21 0.38,0.43 0.58,0.66 0.81,0.91 1.64,2.01 2.55,3.2 0.46,0.59 0.94,1.21 1.46,1.83 0.53,0.61 1.08,1.23 1.64,1.89 l 0.11,0.12 0.06,0.07 c 0.03,0.05 0.05,0.1 0.07,0.16 0.03,0.11 0,0.26 -0.03,0.32 z"
     clip-path="url(#SVGID_00000147929494248088433640000003028076616205719955_)"
     id="path14724"
     transform="matrix(0.39735752,0.68300028,-0.58404733,0.46468031,857.09644,-480.77301)"
     style="fill:none;fill-opacity:1;stroke:#0d0000;stroke-opacity:1" /><path
     d="m 996.7,559.32 c -0.01,0.05 -0.1,0.23 -0.26,0.32 -0.09,0.07 -0.63,0.07 -1.1,0.11 -0.5,0.03 -1.06,0.07 -1.67,0.12 -0.61,0.05 -1.27,0.12 -1.97,0.19 -0.7,0.07 -1.44,0.12 -2.2,0.19 -0.38,0.03 -0.77,0.06 -1.16,0.08 -0.21,0.02 -0.35,0 -0.45,-0.04 -0.07,-0.02 -0.12,-0.07 -0.18,-0.11 -0.02,-0.02 -0.15,-0.15 -0.14,-0.17 -0.03,-0.04 -0.05,-0.12 -0.07,-0.18 l -0.02,-0.1 c -0.01,-0.04 -0.01,-0.1 -0.01,-0.15 l -0.04,-0.61 c -0.02,-0.41 -0.05,-0.81 -0.07,-1.22 0,-0.19 0.03,-0.27 0.11,-0.4 0.07,-0.12 0.19,-0.21 0.32,-0.26 0.07,-0.03 0.13,-0.03 0.21,-0.05 l 0.3,-0.02 0.6,-0.03 c 0.8,-0.03 1.59,-0.08 2.36,-0.1 0.77,-0.02 1.51,-0.03 2.21,-0.07 0.7,-0.03 1.36,-0.06 1.98,-0.09 0.15,-0.01 0.3,-0.02 0.45,-0.03 l 0.11,-0.01 h 0.03 0.01 0.03 c 0.07,0 0.16,0 0.16,0.02 0.09,0.02 0.26,0.13 0.31,0.25 0.02,0.03 0.05,0.11 0.05,0.17 l 0.01,0.05 0.01,0.09 c 0,0.06 0.01,0.11 0.01,0.16 0.01,0.22 0.02,0.41 0.04,0.59 0.04,0.62 0.06,1.01 0.07,1.1 0,0.01 0,0.03 0,0.05 -0.02,0.05 -0.03,0.15 -0.04,0.15 m 0.91,-0.19 c 0,-0.01 0,-0.03 0,-0.04 0,0 -0.02,-0.41 -0.07,-1.12 -0.01,-0.18 -0.02,-0.38 -0.04,-0.59 0,-0.05 -0.01,-0.11 -0.01,-0.17 l -0.01,-0.08 -0.02,-0.12 c -0.01,-0.08 -0.03,-0.17 -0.06,-0.25 -0.03,-0.08 -0.06,-0.16 -0.12,-0.26 -0.19,-0.31 -0.47,-0.55 -0.92,-0.66 -0.14,-0.03 -0.19,-0.03 -0.26,-0.03 h -0.05 -0.1 l -0.11,0.01 c -0.15,0.01 -0.3,0.02 -0.45,0.03 -0.61,0.05 -1.27,0.1 -1.97,0.15 -0.7,0.05 -1.44,0.14 -2.2,0.2 -0.76,0.08 -1.55,0.12 -2.36,0.19 l -0.6,0.04 -0.3,0.02 c -0.12,0.02 -0.26,0.03 -0.38,0.08 -0.25,0.09 -0.48,0.26 -0.62,0.49 -0.15,0.21 -0.22,0.54 -0.21,0.76 0.03,0.41 0.05,0.82 0.08,1.22 l 0.04,0.61 0.01,0.16 0.03,0.2 c 0.04,0.13 0.07,0.25 0.16,0.37 0.04,0.06 0.08,0.13 0.12,0.16 l 0.05,0.05 0.03,0.03 0.01,0.01 c 0.04,0.04 0.02,0.02 0.03,0.03 l 0.01,0.01 c 0.1,0.08 0.21,0.15 0.33,0.2 0.26,0.11 0.54,0.1 0.71,0.09 0.39,-0.02 0.78,-0.05 1.16,-0.06 0.77,-0.03 1.51,-0.07 2.21,-0.08 0.7,-0.02 1.37,-0.03 1.98,-0.05 0.61,-0.03 1.17,-0.06 1.67,-0.09 0.25,-0.02 0.48,-0.03 0.7,-0.04 0.17,0 0.52,-0.04 0.75,-0.15 0.23,-0.13 0.41,-0.28 0.52,-0.45 0.06,-0.08 0.1,-0.16 0.14,-0.24 0.04,-0.07 0.06,-0.16 0.08,-0.24 0.04,-0.18 0.03,-0.23 0.04,-0.29 0,-0.07 0,-0.1 0,-0.1"
     clip-path="url(#SVGID_00000147929494248088433640000003028076616205719955_-1)"
     id="path14730-0"
     transform="rotate(-68.127528,917.71552,529.57044)" /><path
     d="m 996.7,559.32 c -0.01,0.05 -0.1,0.23 -0.26,0.32 -0.09,0.07 -0.63,0.07 -1.1,0.11 -0.5,0.03 -1.06,0.07 -1.67,0.12 -0.61,0.05 -1.27,0.12 -1.97,0.19 -0.7,0.07 -1.44,0.12 -2.2,0.19 -0.38,0.03 -0.77,0.06 -1.16,0.08 -0.21,0.02 -0.35,0 -0.45,-0.04 -0.07,-0.02 -0.12,-0.07 -0.18,-0.11 -0.02,-0.02 -0.15,-0.15 -0.14,-0.17 -0.03,-0.04 -0.05,-0.12 -0.07,-0.18 l -0.02,-0.1 c -0.01,-0.04 -0.01,-0.1 -0.01,-0.15 l -0.04,-0.61 c -0.02,-0.41 -0.05,-0.81 -0.07,-1.22 0,-0.19 0.03,-0.27 0.11,-0.4 0.07,-0.12 0.19,-0.21 0.32,-0.26 0.07,-0.03 0.13,-0.03 0.21,-0.05 l 0.3,-0.02 0.6,-0.03 c 0.8,-0.03 1.59,-0.08 2.36,-0.1 0.77,-0.02 1.51,-0.03 2.21,-0.07 0.7,-0.03 1.36,-0.06 1.98,-0.09 0.15,-0.01 0.3,-0.02 0.45,-0.03 l 0.11,-0.01 h 0.03 0.01 0.03 c 0.07,0 0.16,0 0.16,0.02 0.09,0.02 0.26,0.13 0.31,0.25 0.02,0.03 0.05,0.11 0.05,0.17 l 0.01,0.05 0.01,0.09 c 0,0.06 0.01,0.11 0.01,0.16 0.01,0.22 0.02,0.41 0.04,0.59 0.04,0.62 0.06,1.01 0.07,1.1 0,0.01 0,0.03 0,0.05 -0.02,0.05 -0.03,0.15 -0.04,0.15 m 0.91,-0.19 c 0,-0.01 0,-0.03 0,-0.04 0,0 -0.02,-0.41 -0.07,-1.12 -0.01,-0.18 -0.02,-0.38 -0.04,-0.59 0,-0.05 -0.01,-0.11 -0.01,-0.17 l -0.01,-0.08 -0.02,-0.12 c -0.01,-0.08 -0.03,-0.17 -0.06,-0.25 -0.03,-0.08 -0.06,-0.16 -0.12,-0.26 -0.19,-0.31 -0.47,-0.55 -0.92,-0.66 -0.14,-0.03 -0.19,-0.03 -0.26,-0.03 h -0.05 -0.1 l -0.11,0.01 c -0.15,0.01 -0.3,0.02 -0.45,0.03 -0.61,0.05 -1.27,0.1 -1.97,0.15 -0.7,0.05 -1.44,0.14 -2.2,0.2 -0.76,0.08 -1.55,0.12 -2.36,0.19 l -0.6,0.04 -0.3,0.02 c -0.12,0.02 -0.26,0.03 -0.38,0.08 -0.25,0.09 -0.48,0.26 -0.62,0.49 -0.15,0.21 -0.22,0.54 -0.21,0.76 0.03,0.41 0.05,0.82 0.08,1.22 l 0.04,0.61 0.01,0.16 0.03,0.2 c 0.04,0.13 0.07,0.25 0.16,0.37 0.04,0.06 0.08,0.13 0.12,0.16 l 0.05,0.05 0.03,0.03 0.01,0.01 c 0.04,0.04 0.02,0.02 0.03,0.03 l 0.01,0.01 c 0.1,0.08 0.21,0.15 0.33,0.2 0.26,0.11 0.54,0.1 0.71,0.09 0.39,-0.02 0.78,-0.05 1.16,-0.06 0.77,-0.03 1.51,-0.07 2.21,-0.08 0.7,-0.02 1.37,-0.03 1.98,-0.05 0.61,-0.03 1.17,-0.06 1.67,-0.09 0.25,-0.02 0.48,-0.03 0.7,-0.04 0.17,0 0.52,-0.04 0.75,-0.15 0.23,-0.13 0.41,-0.28 0.52,-0.45 0.06,-0.08 0.1,-0.16 0.14,-0.24 0.04,-0.07 0.06,-0.16 0.08,-0.24 0.04,-0.18 0.03,-0.23 0.04,-0.29 0,-0.07 0,-0.1 0,-0.1"
     clip-path="url(#SVGID_00000147929494248088433640000003028076616205719955_-1-1)"
     id="path14730-0-4"
     transform="rotate(-68.127528,892.56434,552.97386)" /><path
     d="m 996.7,559.32 c -0.01,0.05 -0.1,0.23 -0.26,0.32 -0.09,0.07 -0.63,0.07 -1.1,0.11 -0.5,0.03 -1.06,0.07 -1.67,0.12 -0.61,0.05 -1.27,0.12 -1.97,0.19 -0.7,0.07 -1.44,0.12 -2.2,0.19 -0.38,0.03 -0.77,0.06 -1.16,0.08 -0.21,0.02 -0.35,0 -0.45,-0.04 -0.07,-0.02 -0.12,-0.07 -0.18,-0.11 -0.02,-0.02 -0.15,-0.15 -0.14,-0.17 -0.03,-0.04 -0.05,-0.12 -0.07,-0.18 l -0.02,-0.1 c -0.01,-0.04 -0.01,-0.1 -0.01,-0.15 l -0.04,-0.61 c -0.02,-0.41 -0.05,-0.81 -0.07,-1.22 0,-0.19 0.03,-0.27 0.11,-0.4 0.07,-0.12 0.19,-0.21 0.32,-0.26 0.07,-0.03 0.13,-0.03 0.21,-0.05 l 0.3,-0.02 0.6,-0.03 c 0.8,-0.03 1.59,-0.08 2.36,-0.1 0.77,-0.02 1.51,-0.03 2.21,-0.07 0.7,-0.03 1.36,-0.06 1.98,-0.09 0.15,-0.01 0.3,-0.02 0.45,-0.03 l 0.11,-0.01 h 0.03 0.01 0.03 c 0.07,0 0.16,0 0.16,0.02 0.09,0.02 0.26,0.13 0.31,0.25 0.02,0.03 0.05,0.11 0.05,0.17 l 0.01,0.05 0.01,0.09 c 0,0.06 0.01,0.11 0.01,0.16 0.01,0.22 0.02,0.41 0.04,0.59 0.04,0.62 0.06,1.01 0.07,1.1 0,0.01 0,0.03 0,0.05 -0.02,0.05 -0.03,0.15 -0.04,0.15 m 0.91,-0.19 c 0,-0.01 0,-0.03 0,-0.04 0,0 -0.02,-0.41 -0.07,-1.12 -0.01,-0.18 -0.02,-0.38 -0.04,-0.59 0,-0.05 -0.01,-0.11 -0.01,-0.17 l -0.01,-0.08 -0.02,-0.12 c -0.01,-0.08 -0.03,-0.17 -0.06,-0.25 -0.03,-0.08 -0.06,-0.16 -0.12,-0.26 -0.19,-0.31 -0.47,-0.55 -0.92,-0.66 -0.14,-0.03 -0.19,-0.03 -0.26,-0.03 h -0.05 -0.1 l -0.11,0.01 c -0.15,0.01 -0.3,0.02 -0.45,0.03 -0.61,0.05 -1.27,0.1 -1.97,0.15 -0.7,0.05 -1.44,0.14 -2.2,0.2 -0.76,0.08 -1.55,0.12 -2.36,0.19 l -0.6,0.04 -0.3,0.02 c -0.12,0.02 -0.26,0.03 -0.38,0.08 -0.25,0.09 -0.48,0.26 -0.62,0.49 -0.15,0.21 -0.22,0.54 -0.21,0.76 0.03,0.41 0.05,0.82 0.08,1.22 l 0.04,0.61 0.01,0.16 0.03,0.2 c 0.04,0.13 0.07,0.25 0.16,0.37 0.04,0.06 0.08,0.13 0.12,0.16 l 0.05,0.05 0.03,0.03 0.01,0.01 c 0.04,0.04 0.02,0.02 0.03,0.03 l 0.01,0.01 c 0.1,0.08 0.21,0.15 0.33,0.2 0.26,0.11 0.54,0.1 0.71,0.09 0.39,-0.02 0.78,-0.05 1.16,-0.06 0.77,-0.03 1.51,-0.07 2.21,-0.08 0.7,-0.02 1.37,-0.03 1.98,-0.05 0.61,-0.03 1.17,-0.06 1.67,-0.09 0.25,-0.02 0.48,-0.03 0.7,-0.04 0.17,0 0.52,-0.04 0.75,-0.15 0.23,-0.13 0.41,-0.28 0.52,-0.45 0.06,-0.08 0.1,-0.16 0.14,-0.24 0.04,-0.07 0.06,-0.16 0.08,-0.24 0.04,-0.18 0.03,-0.23 0.04,-0.29 0,-0.07 0,-0.1 0,-0.1"
     clip-path="url(#SVGID_00000147929494248088433640000003028076616205719955_-1-4)"
     id="path14730-0-1"
     transform="rotate(-154.35052,963.0551,507.48823)" /><path
     d="m 983.54,560.15 c 0,-0.04 0,-0.07 0,-0.09 0,-0.05 0,-0.08 0,-0.08 v -0.04 c 0,0 -0.03,-0.41 -0.07,-1.12 -0.01,-0.18 -0.02,-0.38 -0.04,-0.59 0,-0.05 -0.01,-0.11 -0.01,-0.17 l -0.01,-0.08 -0.02,-0.12 c -0.01,-0.08 -0.03,-0.17 -0.06,-0.25 -0.03,-0.08 -0.06,-0.17 -0.12,-0.26 -0.19,-0.31 -0.47,-0.55 -0.93,-0.66 -0.14,-0.03 -0.19,-0.02 -0.26,-0.03 h -0.1 -0.05 l -0.11,0.01 c -0.15,0.01 -0.3,0.02 -0.45,0.03 -0.61,0.05 -1.27,0.1 -1.97,0.15 -0.7,0.05 -1.44,0.13 -2.2,0.2 -0.76,0.08 -1.55,0.12 -2.35,0.19 l -0.6,0.04 -0.3,0.02 c -0.11,0.02 -0.26,0.03 -0.38,0.08 -0.25,0.09 -0.47,0.26 -0.61,0.49 -0.04,0.05 -0.07,0.12 -0.1,0.18 -0.03,0.06 -0.05,0.12 -0.07,0.2 -0.04,0.17 -0.04,0.25 -0.04,0.36 0.03,0.42 0.05,0.84 0.08,1.25 l 0.04,0.61 c 0,0.05 0,0.1 0.01,0.16 l 0.03,0.2 c 0.04,0.13 0.07,0.25 0.16,0.38 0.04,0.06 0.08,0.13 0.11,0.15 l 0.05,0.05 0.03,0.03 0.03,0.03 0.02,0.02 c 0.1,0.08 0.21,0.15 0.33,0.2 0.26,0.11 0.54,0.1 0.71,0.09 0.39,-0.02 0.78,-0.05 1.16,-0.06 0.77,-0.03 1.51,-0.07 2.21,-0.08 0.7,-0.02 1.37,-0.03 1.98,-0.05 0.61,-0.03 1.17,-0.06 1.67,-0.09 0.25,-0.02 0.48,-0.03 0.7,-0.04 0.17,0 0.52,-0.04 0.75,-0.15 0.49,-0.27 0.66,-0.62 0.74,-0.94 0.02,-0.1 0.04,-0.19 0.04,-0.22"
     clip-path="url(#SVGID_00000147929494248088433640000003028076616205719955_-7-7)"
     id="path14732-9-08"
     transform="rotate(-27.872942,743.07319,574.85689)" /><path
     d="m 983.54,560.15 c 0,-0.04 0,-0.07 0,-0.09 0,-0.05 0,-0.08 0,-0.08 v -0.04 c 0,0 -0.03,-0.41 -0.07,-1.12 -0.01,-0.18 -0.02,-0.38 -0.04,-0.59 0,-0.05 -0.01,-0.11 -0.01,-0.17 l -0.01,-0.08 -0.02,-0.12 c -0.01,-0.08 -0.03,-0.17 -0.06,-0.25 -0.03,-0.08 -0.06,-0.17 -0.12,-0.26 -0.19,-0.31 -0.47,-0.55 -0.93,-0.66 -0.14,-0.03 -0.19,-0.02 -0.26,-0.03 h -0.1 -0.05 l -0.11,0.01 c -0.15,0.01 -0.3,0.02 -0.45,0.03 -0.61,0.05 -1.27,0.1 -1.97,0.15 -0.7,0.05 -1.44,0.13 -2.2,0.2 -0.76,0.08 -1.55,0.12 -2.35,0.19 l -0.6,0.04 -0.3,0.02 c -0.11,0.02 -0.26,0.03 -0.38,0.08 -0.25,0.09 -0.47,0.26 -0.61,0.49 -0.04,0.05 -0.07,0.12 -0.1,0.18 -0.03,0.06 -0.05,0.12 -0.07,0.2 -0.04,0.17 -0.04,0.25 -0.04,0.36 0.03,0.42 0.05,0.84 0.08,1.25 l 0.04,0.61 c 0,0.05 0,0.1 0.01,0.16 l 0.03,0.2 c 0.04,0.13 0.07,0.25 0.16,0.38 0.04,0.06 0.08,0.13 0.11,0.15 l 0.05,0.05 0.03,0.03 0.03,0.03 0.02,0.02 c 0.1,0.08 0.21,0.15 0.33,0.2 0.26,0.11 0.54,0.1 0.71,0.09 0.39,-0.02 0.78,-0.05 1.16,-0.06 0.77,-0.03 1.51,-0.07 2.21,-0.08 0.7,-0.02 1.37,-0.03 1.98,-0.05 0.61,-0.03 1.17,-0.06 1.67,-0.09 0.25,-0.02 0.48,-0.03 0.7,-0.04 0.17,0 0.52,-0.04 0.75,-0.15 0.49,-0.27 0.66,-0.62 0.74,-0.94 0.02,-0.1 0.04,-0.19 0.04,-0.22"
     clip-path="url(#SVGID_00000147929494248088433640000003028076616205719955_-7-7-5)"
     id="path14732-9-08-2"
     transform="rotate(-27.872942,816.09628,555.53975)" /><path
     d="m 983.54,560.15 c 0,-0.04 0,-0.07 0,-0.09 0,-0.05 0,-0.08 0,-0.08 v -0.04 c 0,0 -0.03,-0.41 -0.07,-1.12 -0.01,-0.18 -0.02,-0.38 -0.04,-0.59 0,-0.05 -0.01,-0.11 -0.01,-0.17 l -0.01,-0.08 -0.02,-0.12 c -0.01,-0.08 -0.03,-0.17 -0.06,-0.25 -0.03,-0.08 -0.06,-0.17 -0.12,-0.26 -0.19,-0.31 -0.47,-0.55 -0.93,-0.66 -0.14,-0.03 -0.19,-0.02 -0.26,-0.03 h -0.1 -0.05 l -0.11,0.01 c -0.15,0.01 -0.3,0.02 -0.45,0.03 -0.61,0.05 -1.27,0.1 -1.97,0.15 -0.7,0.05 -1.44,0.13 -2.2,0.2 -0.76,0.08 -1.55,0.12 -2.35,0.19 l -0.6,0.04 -0.3,0.02 c -0.11,0.02 -0.26,0.03 -0.38,0.08 -0.25,0.09 -0.47,0.26 -0.61,0.49 -0.04,0.05 -0.07,0.12 -0.1,0.18 -0.03,0.06 -0.05,0.12 -0.07,0.2 -0.04,0.17 -0.04,0.25 -0.04,0.36 0.03,0.42 0.05,0.84 0.08,1.25 l 0.04,0.61 c 0,0.05 0,0.1 0.01,0.16 l 0.03,0.2 c 0.04,0.13 0.07,0.25 0.16,0.38 0.04,0.06 0.08,0.13 0.11,0.15 l 0.05,0.05 0.03,0.03 0.03,0.03 0.02,0.02 c 0.1,0.08 0.21,0.15 0.33,0.2 0.26,0.11 0.54,0.1 0.71,0.09 0.39,-0.02 0.78,-0.05 1.16,-0.06 0.77,-0.03 1.51,-0.07 2.21,-0.08 0.7,-0.02 1.37,-0.03 1.98,-0.05 0.61,-0.03 1.17,-0.06 1.67,-0.09 0.25,-0.02 0.48,-0.03 0.7,-0.04 0.17,0 0.52,-0.04 0.75,-0.15 0.49,-0.27 0.66,-0.62 0.74,-0.94 0.02,-0.1 0.04,-0.19 0.04,-0.22"
     clip-path="url(#SVGID_00000147929494248088433640000003028076616205719955_-7-9)"
     id="path14732-9-0"
     transform="rotate(-118.56373,943.5417,510.47159)" /><path
     d="m 983.54,560.15 c 0,-0.04 0,-0.07 0,-0.09 0,-0.05 0,-0.08 0,-0.08 v -0.04 c 0,0 -0.03,-0.41 -0.07,-1.12 -0.01,-0.18 -0.02,-0.38 -0.04,-0.59 0,-0.05 -0.01,-0.11 -0.01,-0.17 l -0.01,-0.08 -0.02,-0.12 c -0.01,-0.08 -0.03,-0.17 -0.06,-0.25 -0.03,-0.08 -0.06,-0.17 -0.12,-0.26 -0.19,-0.31 -0.47,-0.55 -0.93,-0.66 -0.14,-0.03 -0.19,-0.02 -0.26,-0.03 h -0.1 -0.05 l -0.11,0.01 c -0.15,0.01 -0.3,0.02 -0.45,0.03 -0.61,0.05 -1.27,0.1 -1.97,0.15 -0.7,0.05 -1.44,0.13 -2.2,0.2 -0.76,0.08 -1.55,0.12 -2.35,0.19 l -0.6,0.04 -0.3,0.02 c -0.11,0.02 -0.26,0.03 -0.38,0.08 -0.25,0.09 -0.47,0.26 -0.61,0.49 -0.04,0.05 -0.07,0.12 -0.1,0.18 -0.03,0.06 -0.05,0.12 -0.07,0.2 -0.04,0.17 -0.04,0.25 -0.04,0.36 0.03,0.42 0.05,0.84 0.08,1.25 l 0.04,0.61 c 0,0.05 0,0.1 0.01,0.16 l 0.03,0.2 c 0.04,0.13 0.07,0.25 0.16,0.38 0.04,0.06 0.08,0.13 0.11,0.15 l 0.05,0.05 0.03,0.03 0.03,0.03 0.02,0.02 c 0.1,0.08 0.21,0.15 0.33,0.2 0.26,0.11 0.54,0.1 0.71,0.09 0.39,-0.02 0.78,-0.05 1.16,-0.06 0.77,-0.03 1.51,-0.07 2.21,-0.08 0.7,-0.02 1.37,-0.03 1.98,-0.05 0.61,-0.03 1.17,-0.06 1.67,-0.09 0.25,-0.02 0.48,-0.03 0.7,-0.04 0.17,0 0.52,-0.04 0.75,-0.15 0.49,-0.27 0.66,-0.62 0.74,-0.94 0.02,-0.1 0.04,-0.19 0.04,-0.22"
     clip-path="url(#SVGID_00000147929494248088433640000003028076616205719955_-7-9-4)"
     id="path14732-9-0-6"
     transform="rotate(-118.56373,932.37667,529.53686)" /></g>
</g>

<text
   xml:space="preserve"
   style="font-style:normal;font-variant:normal;font-weight:normal;font-stretch:normal;font-size:18.6667px;line-height:1.25;font-family:Arial;-inkscape-font-specification:Arial;fill:#ffffff;fill-opacity:1"
   x="53.671673"
   y="34.230881"
   id="text7935"><tspan
     id="tspan7933"
     x="53.671673"
     y="34.230881">Neu starten</tspan></text></svg>
